<svg width="102" height="25" viewBox="0 0 102 25" fill="none" xmlns="http://www.w3.org/2000/svg">
<path d="M17.8648 12.5938C17.8847 10.9052 18.7687 9.3557 20.209 8.47167C19.2951 7.17047 17.8251 6.37584 16.2457 6.32617C14.577 6.14738 12.958 7.31946 12.1137 7.31946C11.2694 7.31946 9.93838 6.33611 8.52792 6.36591C6.67047 6.4255 4.99182 7.45852 4.08793 9.07758C2.17088 12.4051 3.60122 17.292 5.4388 19.9839C6.36255 21.3049 7.4353 22.775 8.84577 22.7154C10.2264 22.6558 10.7429 21.8413 12.4017 21.8413C14.0605 21.8413 14.5274 22.7154 15.9676 22.6856C17.4476 22.6657 18.3813 21.3645 19.2653 20.0335C19.9308 19.0998 20.4374 18.0569 20.7751 16.9643C19.017 16.2193 17.8747 14.5009 17.8747 12.5938H17.8648Z" fill="#502314"/>
<path d="M15.1558 4.55837C15.9603 3.59488 16.3576 2.34334 16.2583 1.0918C15.0266 1.22092 13.8844 1.80696 13.0699 2.74065C12.2653 3.65448 11.8581 4.85635 11.9375 6.07809C13.1891 6.08803 14.3711 5.53179 15.1558 4.55837Z" fill="#502314"/>
<path d="M53.8376 7.54881C53.9357 8.40692 54.7693 8.97083 55.9134 8.97083C57.0576 8.97083 57.7931 8.40693 57.7931 7.63054C57.7931 6.9604 57.3191 6.55177 56.1913 6.27391L55.0635 6.00422C53.4699 5.62011 52.7343 4.87642 52.7343 3.66689C52.7343 2.17133 54.0419 1.1416 55.8889 1.1416C57.7359 1.1416 58.9781 2.17133 59.019 3.66689H57.7114C57.6296 2.80061 56.9186 2.27757 55.8726 2.27757C54.8265 2.27757 54.1155 2.80878 54.1155 3.577C54.1155 4.18993 54.5731 4.54952 55.6928 4.82738L56.6489 5.06438C58.4305 5.48118 59.1661 6.20036 59.1661 7.46709C59.1661 9.09341 57.8748 10.1068 55.8153 10.1068C53.8948 10.1068 52.5954 9.11793 52.5137 7.54881H53.8376Z" fill="#502314"/>
<path d="M33.2526 7.62237H29.951L29.1582 9.96787H27.7607L30.8908 1.29688H32.3455L35.4755 9.96787H34.0535L33.2608 7.62237H33.2526ZM30.286 6.5436H32.9094L31.6181 2.73523H31.5855L30.2942 6.5436H30.286Z" fill="#502314"/>
<path d="M42.2395 6.8053C42.2395 8.76669 41.1852 10.0334 39.5998 10.0334C38.7825 10.0743 38.0061 9.64932 37.6139 8.93014H37.5812V12.0602H36.2817V3.64256H37.5403V4.69681H37.5648C37.9816 3.97763 38.7498 3.55266 39.5752 3.57718C41.177 3.57718 42.2395 4.84391 42.2395 6.8053ZM40.9074 6.8053C40.9074 5.52223 40.2454 4.68046 39.2402 4.68046C38.235 4.68046 37.5812 5.53857 37.5812 6.8053C37.5812 8.07203 38.2513 8.93014 39.2402 8.93014C40.2536 8.93014 40.9074 8.09655 40.9074 6.8053Z" fill="#502314"/>
<path d="M49.2155 6.8053C49.2155 8.76669 48.1613 10.0334 46.5758 10.0334C45.7586 10.0743 44.9822 9.64932 44.5899 8.93014H44.5572V12.0602H43.2578V3.64256H44.5164V4.69681H44.5409C44.9577 3.97763 45.7259 3.55266 46.5513 3.57718C48.1531 3.57718 49.2155 4.84391 49.2155 6.8053ZM47.8834 6.8053C47.8834 5.52223 47.2215 4.68046 46.2162 4.68046C45.211 4.68046 44.5572 5.53857 44.5572 6.8053C44.5572 8.07203 45.2274 8.93014 46.2162 8.93014C47.2296 8.93014 47.8834 8.09655 47.8834 6.8053Z" fill="#502314"/>
<path d="M61.9659 2.14648V3.64205H63.1673V4.67178H61.9659V8.16142C61.9659 8.7008 62.2029 8.95415 62.7342 8.95415C62.8731 8.95415 63.0202 8.94597 63.1591 8.92146V9.94302C62.9221 9.98388 62.6769 10.0084 62.4399 10.0002C61.1569 10.0002 60.6583 9.51805 60.6583 8.29218V4.67178H59.7349V3.64205H60.6583V2.14648H61.9659Z" fill="#502314"/>
<path d="M63.8789 6.80563C63.8789 4.81972 65.0476 3.56934 66.8782 3.56934C68.7088 3.56934 69.8775 4.81972 69.8775 6.80563C69.8775 8.79154 68.717 10.0419 66.8782 10.0419C65.0394 10.0419 63.8789 8.79971 63.8789 6.80563ZM68.5536 6.80563C68.5536 5.44083 67.9324 4.63176 66.8782 4.63176C65.824 4.63176 65.2028 5.44083 65.2028 6.80563C65.2028 8.17043 65.824 8.97134 66.8782 8.97134C67.9324 8.97134 68.5536 8.17043 68.5536 6.80563Z" fill="#502314"/>
<path d="M70.953 3.64246H72.187V4.72123H72.2197C72.3913 4.02657 73.0288 3.55256 73.7398 3.57708C73.8869 3.57708 74.0422 3.59343 74.1811 3.62612V4.84381C73.9932 4.7866 73.797 4.76209 73.6009 4.76209C72.8817 4.7294 72.2688 5.2933 72.2442 6.01248C72.2442 6.07786 72.2442 6.14323 72.2442 6.21679V9.96795H70.9448V3.64246H70.953Z" fill="#502314"/>
<path d="M80.1712 8.11323C79.877 9.34727 78.7083 10.1727 77.4497 10.0501C75.6109 10.0501 74.4668 8.81606 74.4668 6.83832C74.4668 4.86059 75.6109 3.56934 77.3925 3.56934C79.1741 3.56934 80.2447 4.77069 80.2447 6.69122V7.13253H75.7826V7.21426C75.7008 8.1214 76.371 8.9223 77.2781 8.99585C77.3435 8.99585 77.4171 8.99585 77.4824 8.99585C78.1117 9.05306 78.7083 8.69347 78.9453 8.10505H80.1794L80.1712 8.11323ZM75.7826 6.22539H78.9453C78.9943 5.38362 78.3487 4.67262 77.507 4.62358C77.4661 4.62358 77.4334 4.62358 77.3925 4.62358C76.5099 4.62358 75.7826 5.33459 75.7826 6.21721C75.7826 6.21721 75.7826 6.22539 75.7826 6.23356V6.22539Z" fill="#502314"/>
<path d="M84.7021 2.74351C85.1392 2.74351 85.5266 2.89251 85.8444 3.18056C86.1722 3.46861 86.4205 3.87586 86.5993 4.41223C86.7781 4.93868 86.8675 5.57438 86.8675 6.31934C86.8675 7.06431 86.7781 7.68015 86.5993 8.21652C86.4205 8.75289 86.1722 9.16014 85.8444 9.44819C85.5166 9.73625 85.1392 9.87531 84.7021 9.87531C84.2651 9.87531 83.8976 9.73625 83.5698 9.44819C83.2519 9.16014 82.9937 8.75289 82.8248 8.21652C82.656 7.68015 82.5566 7.05437 82.5566 6.31934C82.5566 5.58431 82.646 4.94861 82.8248 4.41223C83.0036 3.88579 83.2519 3.46861 83.5797 3.18056C83.9075 2.89251 84.275 2.74351 84.7021 2.74351ZM84.7021 3.83613C84.4836 3.83613 84.285 3.93546 84.1161 4.12418C83.9472 4.3129 83.8181 4.59103 83.7287 4.96847C83.6393 5.33599 83.5996 5.7929 83.5996 6.31934C83.5996 6.84578 83.6393 7.28283 83.7287 7.66028C83.8181 8.03773 83.9472 8.31585 84.1161 8.51451C84.285 8.71316 84.4737 8.80256 84.7021 8.80256C84.9405 8.80256 85.1392 8.70323 85.2981 8.51451C85.467 8.31585 85.5862 8.03773 85.6756 7.66028C85.765 7.28283 85.8047 6.83585 85.8047 6.31934C85.8047 5.80283 85.765 5.33599 85.6756 4.96847C85.5862 4.60096 85.457 4.32284 85.2981 4.12418C85.1292 3.93546 84.9306 3.83613 84.7021 3.83613ZM86.4901 5.77304H88.278V6.71666H86.4901V5.77304ZM87.9105 2.16741H88.9832V11.5242H87.9105V2.16741ZM89.9169 1.96875H91.0194V12.0009H89.9169V1.96875Z" fill="#502314"/>
<path d="M94.9222 2.79318H95.8559V4.44203C95.8559 5.038 95.7963 5.61411 95.6672 6.17035C95.538 6.72659 95.3593 7.25303 95.1209 7.73974C94.8825 8.22645 94.5944 8.65357 94.2567 9.03101C93.919 9.40846 93.5316 9.70645 93.0946 9.92497L92.3794 9.01115C92.7767 8.82242 93.1244 8.56417 93.4422 8.24632C93.7501 7.92847 94.0183 7.56095 94.2468 7.14377C94.4752 6.72659 94.6342 6.29948 94.7533 5.84257C94.8626 5.38565 94.9222 4.91881 94.9222 4.44203V2.79318ZM95.1606 2.79318H96.0843V4.44203C96.0843 4.89894 96.144 5.35586 96.2532 5.81277C96.3625 6.25975 96.5313 6.68686 96.7499 7.07424C96.9684 7.46162 97.2366 7.81921 97.5445 8.12712C97.8524 8.43504 98.2001 8.67343 98.5874 8.85222L97.8921 9.77598C97.465 9.55746 97.0776 9.2694 96.7399 8.90189C96.4022 8.53437 96.1141 8.12712 95.8857 7.66028C95.6473 7.19344 95.4685 6.68686 95.3493 6.14055C95.2202 5.59424 95.1606 5.038 95.1606 4.45197V2.80311V2.79318ZM97.4849 5.25653H100.216V6.19022H97.4849V5.25653ZM99.6304 1.96875H100.783V12.0208H99.6304V1.96875Z" fill="#502314"/>
<path d="M28.0269 16.3577H31.553V17.063H28.891V20.9865H28.0269V16.3577ZM28.0269 20.6487H28.6427C29.0996 20.6487 29.5168 20.6487 29.8942 20.6289C30.2717 20.6189 30.6491 20.5891 31.0067 20.5494C31.3643 20.5097 31.7318 20.46 32.0993 20.4004L32.1887 21.1255C31.8113 21.195 31.4338 21.2546 31.0663 21.2844C30.6988 21.3242 30.3114 21.344 29.924 21.3639C29.5367 21.3838 29.0996 21.3838 28.6427 21.3838H28.0269V20.6487ZM32.7251 15.6426H33.5992V23.2511H32.7251V15.6426ZM33.4005 18.5529H34.7713V19.278H33.4005V18.5529Z" fill="#502314"/>
<path d="M35.6147 19.4273H42.4883V20.1226H35.6147V19.4273ZM39.0416 15.8018C39.578 15.8018 40.0448 15.8614 40.452 15.9905C40.8593 16.1196 41.1672 16.2984 41.3957 16.5269C41.6241 16.7553 41.7334 17.0334 41.7334 17.3513C41.7334 17.6691 41.6241 17.9373 41.3957 18.1757C41.1672 18.4042 40.8593 18.583 40.452 18.7121C40.0448 18.8313 39.578 18.9008 39.0416 18.9008C38.5052 18.9008 38.0284 18.8412 37.6212 18.7121C37.2139 18.583 36.8961 18.4141 36.6776 18.1757C36.459 17.9473 36.3498 17.6691 36.3498 17.3513C36.3498 17.0334 36.459 16.7652 36.6776 16.5269C36.8961 16.2984 37.2139 16.1196 37.6212 15.9905C38.0284 15.8614 38.4953 15.8018 39.0416 15.8018ZM36.4491 20.8377H37.3331V22.5561H36.4491V20.8377ZM36.4491 22.3773H41.7235V23.0825H36.4491V22.3773ZM39.0416 16.507C38.684 16.507 38.3761 16.5368 38.1079 16.6063C37.8397 16.6758 37.641 16.7752 37.4921 16.8944C37.353 17.0235 37.2735 17.1725 37.2735 17.3513C37.2735 17.5301 37.3431 17.6791 37.4921 17.8082C37.6311 17.9373 37.8397 18.0367 38.1079 18.0962C38.3761 18.1558 38.684 18.1956 39.0416 18.1956C39.3992 18.1956 39.7071 18.1658 39.9753 18.0962C40.2435 18.0267 40.4421 17.9373 40.5812 17.8082C40.7302 17.6791 40.7997 17.5301 40.7997 17.3513C40.7997 17.1725 40.7302 17.0235 40.5812 16.8944C40.4322 16.7652 40.2335 16.6659 39.9753 16.6063C39.717 16.5368 39.4091 16.507 39.0416 16.507ZM38.6641 19.8742H39.5581V21.5529H38.6641V19.8742Z" fill="#502314"/>
<path d="M43.106 21.6223H49.9795V22.3374H43.106V21.6223ZM43.9205 16.1691H49.165V18.5729H44.7846V19.9734H43.9304V17.8776H48.3008V16.8644H43.9205V16.1592V16.1691ZM43.9403 19.6357H49.3438V20.331H43.9403V19.6357ZM46.0957 20.0827H46.9698V21.9202H46.0957V20.0827Z" fill="#502314"/>
<path d="M50.9546 21.5422H57.8281V22.2574H50.9546V21.5422ZM51.7989 16.3076H56.9938V17.0129H52.663V19.5159H51.7989V16.3076ZM51.7989 19.2179H57.0633V19.9232H51.7989V19.2179Z" fill="#502314"/>
</svg>
