<svg width="224" height="125" viewBox="0 0 224 125" fill="none" xmlns="http://www.w3.org/2000/svg">
<rect y="84.1963" width="224" height="40" rx="20" fill="#FFFCF8"/>
<path opacity="0.4" d="M17.0832 103.18C16.6841 104.364 15.7572 105.394 14.7531 105.948C14.2768 106.205 13.9292 106.115 13.6588 105.754C13.4014 105.394 13.44 104.956 13.8391 104.699C15.3195 103.746 16.2078 102.575 16.2078 100.232V99.5365H14.1866C13.8004 99.5365 13.6331 99.1889 13.6331 98.8285C13.6331 98.468 13.8133 98.1204 14.1866 98.1204H19.9282C20.3016 98.1204 20.4818 98.468 20.4818 98.8285C20.4818 99.1889 20.3145 99.5365 19.9282 99.5365H17.92V100.257C17.92 102.549 18.8469 103.695 20.3788 104.506C20.7264 104.699 20.7779 105.175 20.5462 105.536C20.2758 105.948 19.9669 106.038 19.4648 105.793C18.5508 105.342 17.5209 104.364 17.0832 103.18ZM22.5673 97.0777C23.0308 97.0777 23.3784 97.3094 23.3784 97.6956V108.394C23.3784 108.857 23.0308 109.076 22.5673 109.076C22.091 109.076 21.7563 108.857 21.7563 108.394V97.6956C21.7563 97.3094 22.1039 97.0777 22.5673 97.0777ZM33.7017 98.6096V97.6956C33.7017 97.3094 34.075 97.0905 34.5127 97.0905C34.9504 97.0905 35.3237 97.3094 35.3237 97.6956V103.527C35.3237 104.004 34.989 104.197 34.5127 104.197C34.0235 104.197 33.7017 103.978 33.7017 103.527V102.51H31.0883C30.5348 103.128 29.6722 103.489 28.6166 103.489C26.6598 103.489 25.4111 102.279 25.4111 100.566C25.4111 98.8285 26.6598 97.6184 28.6166 97.6184C29.6722 97.6184 30.5348 97.9917 31.1012 98.6096H33.7017ZM35.3237 105.883V108.87C35.3237 109.256 34.9118 109.475 34.4869 109.475C34.0364 109.475 33.6373 109.256 33.6373 108.87V106.385C33.6373 106.154 33.5987 106.128 33.3669 106.128H27.664C27.2777 106.128 27.0846 105.832 27.0846 105.445C27.0846 105.059 27.2777 104.75 27.664 104.75H34.1394C35.0019 104.75 35.3237 104.969 35.3237 105.883ZM26.9945 100.554C26.9945 101.48 27.5996 102.163 28.6166 102.163C29.6079 102.163 30.2258 101.48 30.2258 100.554C30.2258 99.6138 29.6079 98.9315 28.6166 98.9315C27.5996 98.9315 26.9945 99.6138 26.9945 100.554ZM31.8092 100.566C31.8092 100.772 31.7964 100.978 31.7577 101.159H33.7017V99.9356H31.7449C31.7835 100.142 31.8092 100.348 31.8092 100.566ZM37.0346 107.557C37.0346 107.029 37.4723 106.591 38.013 106.591C38.6309 106.591 39.0171 107.029 39.0171 107.531V107.788C39.0171 108.522 38.6953 109.475 37.6654 109.951C37.2148 110.144 36.9702 109.514 37.3436 109.359C37.6139 109.179 37.8714 108.883 37.9486 108.484C37.4337 108.484 37.0346 108.072 37.0346 107.557ZM43.8402 104.454V99.6781C43.8402 98.6482 44.0333 98.2363 45.076 98.2363H47.6636C48.6292 98.2363 48.8995 98.5839 48.8995 99.5108V104.454C48.8995 105.394 48.642 105.742 47.6636 105.742H45.076C44.1105 105.742 43.8402 105.394 43.8402 104.454ZM46.9813 99.5494H45.7712C45.5137 99.5494 45.4751 99.6266 45.4751 99.8584V104.107C45.4751 104.338 45.5137 104.416 45.7712 104.416H46.9813C47.2259 104.416 47.2774 104.351 47.2774 104.107V99.8584C47.2774 99.6266 47.2259 99.5494 46.9813 99.5494ZM52.5556 101.313V97.6699C52.5556 97.3094 52.8903 97.0777 53.328 97.0777C53.7915 97.0777 54.139 97.3094 54.139 97.6699V108.419C54.139 108.87 53.8043 109.063 53.328 109.063C52.8774 109.063 52.5556 108.87 52.5556 108.419V102.832H51.4356V108.175C51.4356 108.612 51.1009 108.805 50.6374 108.805C50.174 108.805 49.8393 108.612 49.8393 108.175V97.9016C49.8393 97.5282 50.1869 97.3223 50.6374 97.3223C51.088 97.3223 51.4356 97.5282 51.4356 97.9016V101.313H52.5556ZM65.106 106.887C65.106 108.419 63.7028 109.333 61.0508 109.333C58.4118 109.333 57.0085 108.419 57.0085 106.887C57.0085 105.304 58.4118 104.39 61.0508 104.39C63.7028 104.39 65.106 105.304 65.106 106.887ZM55.5023 103.553C55.3478 103.205 55.3478 102.781 55.7855 102.588C57.1501 101.995 58.0384 101.107 58.0384 99.2404V99.2276H56.0816C55.6954 99.2276 55.5281 98.8671 55.5281 98.5195C55.5281 98.1462 55.7083 97.8243 56.0816 97.8243H61.7203C62.1065 97.8243 62.2867 98.1719 62.2867 98.5195C62.2867 98.8671 62.1193 99.2276 61.7203 99.2276H59.7249V99.2404C59.7249 101.081 60.9736 101.905 62.1193 102.343C62.4927 102.485 62.557 102.897 62.4154 103.244C62.2352 103.643 61.9134 103.823 61.3984 103.682C60.4844 103.386 59.4159 102.652 58.9653 101.622C58.5662 102.678 57.5363 103.527 56.5193 103.914C56.0301 104.081 55.6826 103.875 55.5023 103.553ZM63.3552 103.708V97.6956C63.3552 97.3094 63.7157 97.0905 64.1534 97.0905C64.6039 97.0905 64.9644 97.3094 64.9644 97.6956V100.026H66.3419C66.7409 100.026 66.8826 100.322 66.8826 100.721C66.8826 101.12 66.7409 101.416 66.3419 101.416H64.9644V103.708C64.9644 104.184 64.6297 104.377 64.1534 104.377C63.6899 104.377 63.3552 104.184 63.3552 103.708ZM63.4196 106.874C63.4196 106.128 62.6085 105.69 61.0508 105.69C59.506 105.69 58.7078 106.128 58.7078 106.874C58.7078 107.595 59.506 108.059 61.0508 108.059C62.6085 108.059 63.4196 107.595 63.4196 106.874ZM76.7038 97.0777C77.1544 97.0777 77.5277 97.2965 77.5277 97.6956V103.553C77.5277 104.029 77.1801 104.222 76.7038 104.222C76.2403 104.222 75.8927 104.029 75.8927 103.553V102.485H73.833C73.7686 103.167 73.4468 103.399 72.6357 103.399H69.044C68.13 103.399 67.8468 103.102 67.8468 102.163V98.9958C67.8468 98.0947 68.13 97.7728 69.044 97.7728H72.6357C73.4854 97.7728 73.8072 98.0432 73.8458 98.8285H75.8927V97.6956C75.8927 97.2965 76.2661 97.0777 76.7038 97.0777ZM77.5792 106.823C77.5792 108.419 76.1631 109.333 73.4983 109.333C70.8463 109.333 69.4302 108.419 69.4302 106.823C69.4302 105.214 70.8334 104.287 73.4983 104.287C76.1631 104.287 77.5792 105.214 77.5792 106.823ZM75.9056 106.823C75.9056 106.063 75.0817 105.6 73.4983 105.6C71.9277 105.6 71.1038 106.063 71.1038 106.823C71.1038 107.57 71.9277 108.033 73.4983 108.033C75.0817 108.033 75.9056 107.57 75.9056 106.823ZM71.8762 99.0988H69.8164C69.5461 99.0988 69.4946 99.1503 69.4946 99.3949V101.777C69.4946 102.021 69.5461 102.073 69.8164 102.073H71.8762C72.1465 102.073 72.198 102.021 72.198 101.777V99.3949C72.198 99.1503 72.1465 99.0988 71.8762 99.0988ZM75.8927 100.18H73.8458V101.133H75.8927V100.18ZM82.2767 99.3434C82.2767 99.8841 82.9462 100.219 84.697 100.219C86.4606 100.219 87.1043 99.8841 87.1043 99.3434C87.1043 98.777 86.4606 98.4423 84.697 98.4423C82.9462 98.4423 82.2767 98.777 82.2767 99.3434ZM80.5388 99.3434C80.5388 98.0561 81.7618 97.2193 84.697 97.2193C87.645 97.2193 88.8422 98.0561 88.8422 99.3434C88.8422 100.618 87.645 101.468 84.697 101.468C81.7618 101.468 80.5388 100.618 80.5388 99.3434ZM82.6114 108.059H88.6491C89.0096 108.059 89.177 108.329 89.177 108.702C89.177 109.089 89.0096 109.385 88.6491 109.385H81.9034C81.0409 109.385 80.6547 109.114 80.6547 108.303V107.132C80.6547 106.488 80.8864 106.154 81.6459 106.154H86.7439C86.9627 106.154 86.9884 106.141 86.9884 105.973V105.626C86.9884 105.471 86.9756 105.445 86.7439 105.445H81.131C80.7834 105.445 80.6032 105.175 80.6032 104.802C80.6032 104.416 80.7834 104.145 81.131 104.145H87.6193C88.4432 104.145 88.7006 104.506 88.7006 105.188V106.218C88.7006 106.952 88.4432 107.312 87.6193 107.312H82.6114C82.3926 107.312 82.3668 107.338 82.3668 107.505V107.866C82.3668 108.033 82.3926 108.059 82.6114 108.059ZM89.7691 103.373H79.599C79.2514 103.373 79.097 103.064 79.097 102.729C79.097 102.394 79.2514 102.073 79.599 102.073H89.7691C90.1167 102.073 90.2841 102.394 90.2841 102.729C90.2841 103.064 90.1167 103.373 89.7691 103.373ZM103.731 97.0905C104.169 97.0905 104.542 97.3094 104.542 97.6956V102.858C104.542 103.321 104.195 103.527 103.731 103.527C103.255 103.527 102.907 103.321 102.907 102.858V97.6956C102.907 97.3094 103.293 97.0905 103.731 97.0905ZM96.4447 100.373C96.4447 101.236 97.0626 101.892 98.0925 101.892C99.1095 101.892 99.7274 101.236 99.7274 100.373C99.7274 99.5108 99.1095 98.8542 98.0925 98.8542C97.0626 98.8542 96.4447 99.5108 96.4447 100.373ZM94.8612 100.386C94.8612 98.7255 96.1228 97.5411 98.0925 97.5411C100.036 97.5411 101.311 98.7255 101.311 100.386C101.311 102.034 100.036 103.205 98.0925 103.205C96.1228 103.205 94.8612 102.034 94.8612 100.386ZM97.5389 104.042C97.9766 104.042 98.35 104.261 98.35 104.634V105.587H102.92V104.634C102.92 104.261 103.306 104.042 103.731 104.042C104.207 104.042 104.542 104.274 104.542 104.634V108.072C104.542 109.089 104.195 109.308 103.152 109.308H98.1054C96.9982 109.308 96.7279 109.05 96.7279 108.072V104.634C96.7279 104.261 97.1141 104.042 97.5389 104.042ZM98.35 106.836V107.737C98.35 108.02 98.3886 108.033 98.6332 108.033H102.624C102.881 108.033 102.92 108.02 102.92 107.737V106.836H98.35ZM115.676 97.0777C116.127 97.0777 116.5 97.2965 116.5 97.6956V103.965C116.5 104.428 116.153 104.634 115.676 104.634C115.213 104.634 114.865 104.428 114.865 103.965V102.536H113.333C112.96 102.536 112.793 102.266 112.793 101.854C112.793 101.442 112.96 101.159 113.333 101.159H114.865V100.142H113.333C112.947 100.142 112.793 99.8712 112.793 99.4722C112.793 99.0473 112.947 98.777 113.333 98.777H114.865V97.6956C114.865 97.2965 115.239 97.0777 115.676 97.0777ZM108.261 105.857C108.261 105.458 108.454 105.149 108.841 105.149H115.303C116.179 105.149 116.5 105.394 116.5 106.308V108.87C116.5 109.269 116.088 109.475 115.664 109.475C115.2 109.475 114.801 109.269 114.801 108.87V106.797C114.801 106.565 114.775 106.527 114.531 106.527H108.841C108.454 106.527 108.261 106.231 108.261 105.857ZM106.845 98.365C106.845 97.9788 107.013 97.6699 107.399 97.6699H111.158C111.956 97.6699 112.213 98.0303 112.213 98.7255V100.399C112.213 101.146 111.866 101.519 111.158 101.519H108.802C108.57 101.519 108.519 101.558 108.519 101.777V102.485C108.519 102.794 108.532 102.832 108.828 102.845C110.115 102.884 111.184 102.819 112.239 102.6C112.522 102.523 112.819 102.703 112.896 103.09C112.973 103.527 112.806 103.823 112.535 103.901C111.493 104.197 109.948 104.274 108.094 104.222C107.231 104.184 106.858 103.939 106.858 103.025V101.3C106.858 100.618 107.103 100.296 107.875 100.296H110.282C110.527 100.296 110.566 100.232 110.566 100V99.3048C110.566 99.0988 110.527 99.0473 110.27 99.0473H107.399C107.013 99.0473 106.845 98.7126 106.845 98.365ZM118.597 104.132C118.597 102.665 119.499 101.751 121.121 101.751C122.743 101.751 123.67 102.665 123.67 104.132C123.67 105.613 122.743 106.514 121.121 106.514C119.511 106.514 118.597 105.613 118.597 104.132ZM120.001 104.132C120.001 104.866 120.374 105.317 121.121 105.317C121.88 105.317 122.254 104.866 122.254 104.132C122.254 103.411 121.88 102.909 121.121 102.909C120.387 102.909 120.001 103.411 120.001 104.132ZM124.403 108.175V97.9016C124.403 97.5282 124.738 97.3223 125.189 97.3223C125.639 97.3223 125.974 97.5282 125.974 97.9016V101.88H127.094V97.6699C127.094 97.3094 127.442 97.0905 127.879 97.0905C128.343 97.0905 128.677 97.3094 128.677 97.6699V108.419C128.677 108.87 128.356 109.063 127.879 109.063C127.429 109.063 127.094 108.87 127.094 108.419V103.296H125.974V108.175C125.974 108.612 125.652 108.805 125.189 108.805C124.725 108.805 124.403 108.612 124.403 108.175ZM123.425 101.197H118.61C118.211 101.197 118.07 100.862 118.07 100.502C118.07 100.129 118.237 99.8197 118.61 99.8197H123.425C123.798 99.8197 123.979 100.142 123.979 100.502C123.979 100.862 123.811 101.197 123.425 101.197ZM122.254 99.0731H119.885C119.563 99.0731 119.37 98.7384 119.37 98.3908C119.37 98.0432 119.563 97.7085 119.885 97.7085H122.254C122.575 97.7085 122.769 98.0432 122.769 98.3908C122.769 98.7384 122.575 99.0731 122.254 99.0731ZM138.945 100.669C138.25 101.931 136.795 102.626 135.353 102.858C134.864 102.948 134.555 102.781 134.426 102.394C134.285 102.008 134.4 101.519 134.812 101.429C136.473 101.107 137.76 100.36 137.966 98.9315H135.083C134.696 98.9315 134.542 98.5839 134.542 98.2363C134.542 97.863 134.722 97.554 135.083 97.554H142.794C143.167 97.554 143.347 97.8758 143.347 98.2363C143.347 98.5839 143.18 98.9315 142.794 98.9315H139.923C140.142 100.36 141.545 101.12 143.103 101.416C143.502 101.506 143.644 101.982 143.489 102.356C143.347 102.742 143.051 102.935 142.562 102.845C141.172 102.613 139.64 101.88 138.945 100.669ZM139.782 105.149V108.677C139.782 109.153 139.395 109.346 138.932 109.346C138.456 109.346 138.082 109.153 138.082 108.677V105.149H133.86C133.525 105.149 133.332 104.84 133.332 104.428C133.332 104.042 133.525 103.733 133.86 103.733H143.991C144.339 103.733 144.519 104.042 144.519 104.428C144.519 104.84 144.339 105.149 143.991 105.149H139.782ZM152.499 97.3223C152.924 97.3223 153.272 97.5282 153.272 97.9016V108.175C153.272 108.625 152.937 108.805 152.499 108.805C152.049 108.805 151.714 108.625 151.714 108.175V102.279H150.517C150.131 102.279 149.937 101.995 149.937 101.596C149.937 101.171 150.131 100.888 150.517 100.888H151.714V97.9016C151.714 97.5282 152.062 97.3223 152.499 97.3223ZM148.148 97.7857C148.676 97.7857 148.972 97.9917 148.972 98.3908V100.103C148.972 102.729 149.77 103.849 150.877 104.647C151.212 104.905 151.186 105.381 150.929 105.69C150.645 106.038 150.311 106.102 149.976 105.909C149.217 105.445 148.496 104.519 148.161 103.463C147.878 104.57 147.234 105.497 146.397 106.025C146.024 106.257 145.638 106.166 145.393 105.883C145.11 105.561 145.123 105.111 145.432 104.84C146.616 103.914 147.35 102.742 147.35 100.129V98.3908C147.35 97.9917 147.659 97.7857 148.148 97.7857ZM155.01 97.0777C155.46 97.0777 155.795 97.2965 155.795 97.6699V108.432C155.795 108.87 155.473 109.076 155.01 109.076C154.546 109.076 154.224 108.87 154.224 108.432V97.6699C154.224 97.2965 154.559 97.0777 155.01 97.0777ZM166.903 100.644C166.903 102.407 165.616 103.682 162.642 103.682C159.681 103.682 158.381 102.407 158.381 100.644C158.381 98.88 159.681 97.6312 162.642 97.6312C165.616 97.6312 166.903 98.88 166.903 100.644ZM157.042 106.759C157.042 106.372 157.235 106.063 157.57 106.063H159.643V104.441C159.643 104.042 160.042 103.875 160.492 103.875C160.93 103.875 161.316 104.042 161.316 104.441V106.063H163.955V104.441C163.955 104.042 164.355 103.875 164.792 103.875C165.256 103.875 165.642 104.042 165.642 104.441V106.063H167.702C168.062 106.063 168.229 106.372 168.229 106.759C168.229 107.158 168.049 107.467 167.702 107.467H157.57C157.235 107.467 157.042 107.158 157.042 106.759ZM165.217 100.644C165.217 99.7039 164.432 99.0345 162.642 99.0345C160.866 99.0345 160.068 99.7039 160.068 100.644C160.068 101.596 160.866 102.253 162.642 102.253C164.432 102.253 165.217 101.596 165.217 100.644ZM169.001 107.428C169.001 106.9 169.438 106.45 169.979 106.45C170.507 106.45 170.944 106.9 170.944 107.428C170.944 107.956 170.507 108.394 169.979 108.394C169.438 108.394 169.001 107.956 169.001 107.428Z" fill="#502314"/>
<g clip-path="url(#clip0_6581_68629)">
<path fill-rule="evenodd" clip-rule="evenodd" d="M189.727 102.003C190.095 97.9898 193.666 95.023 197.67 95.3727L197.673 95.373L197.673 95.373C199.489 95.5397 201.309 96.258 202.646 97.5821C203.997 98.9195 204.814 100.837 204.664 103.301C204.549 105.213 203.861 107.033 202.731 108.129L205.519 111.826C205.939 112.384 205.828 113.176 205.27 113.596C204.713 114.016 203.921 113.905 203.501 113.348L200.676 109.601C200.646 109.615 200.615 109.629 200.584 109.642C199.645 110.059 198.452 110.321 196.819 110.33L196.815 110.33H196.808H196.808C196.684 110.33 196.547 110.33 196.401 110.321H196.392L196.374 110.32C194.647 110.217 193.049 109.451 191.816 108.144C190.373 106.618 189.575 104.477 189.698 102.408C189.699 102.28 189.709 102.139 189.727 102.003ZM192.189 102.24C192.18 102.344 192.174 102.418 192.174 102.488V102.506L192.173 102.525C192.091 103.932 192.625 105.396 193.618 106.441L193.619 106.443C194.491 107.366 195.614 107.852 196.795 107.845L196.795 107.845C198.183 107.837 199.064 107.607 199.665 107.327C200.264 107.048 200.627 106.703 200.984 106.362C201.451 105.907 202.08 104.81 202.182 103.149C202.293 101.314 201.683 100.067 200.797 99.242C199.898 98.4056 198.666 97.9596 197.477 97.8467C197.435 97.8466 197.37 97.8453 197.298 97.8366C194.703 97.6855 192.428 99.6282 192.189 102.24Z" fill="#502314"/>
</g>
<g clip-path="url(#clip1_6581_68629)">
<path d="M112.008 50.2046C112.008 50.2046 112.008 50.2046 112.008 50.1963C112.008 50.1963 112.008 50.1963 112 50.1963H112.008V50.2046Z" fill="black"/>
<path d="M121.9 24.0636C121.9 23.855 121.733 23.743 121.407 23.7176C120.89 23.6718 120.364 23.6107 119.838 23.6056C117.075 23.57 114.312 23.5293 111.548 23.5293C103.325 23.5293 95.0941 23.5446 86.8712 23.5649C81.7371 23.5802 76.6113 23.6209 71.4772 23.6362C71.0013 23.6362 70.7759 23.7227 70.7509 24.0178C70.7175 24.4402 70.3502 28.2825 70.3502 28.2825C70.3502 28.2977 70.3585 28.3181 70.3585 28.3283C70.3669 28.5878 70.3585 28.8525 70.3502 29.112V29.1171C70.3502 29.285 70.3335 29.453 70.3335 29.6209C70.3335 29.8601 70.5005 29.9568 70.9012 29.967C72.5291 29.9924 74.1486 30.0586 75.7765 30.0636C81.3697 30.0789 86.963 30.0636 92.5563 30.0891C97.2479 30.1044 101.931 30.1553 107.424 30.196C111.44 30.1553 116.265 30.1145 121.082 30.0636C121.858 30.0535 122 29.9975 122 29.5649C121.983 27.7278 121.933 25.8957 121.9 24.0586V24.0636Z" fill="#F5EBDC"/>
<path d="M103.168 55.4549C102.226 55.4133 101.276 55.3049 100.335 55.2883C95.643 55.2049 90.9513 55.1383 86.2597 55.0799C85.0597 55.0633 82.6597 55.0133 82.6597 54.9883C79.6347 55.0799 76.6097 55.1799 73.5847 55.2716C73.2013 55.2799 73.0097 55.3883 73.0013 55.8133C72.943 58.6383 72.8597 61.4716 72.8013 64.2966C72.7847 65.1466 72.8013 65.9966 72.818 66.8466C72.8347 67.48 73.093 67.8133 73.5763 67.855C74.6347 67.9383 75.7013 68.0549 76.7597 68.0466C79.4513 68.0216 82.1513 67.9299 84.843 67.8799C86.393 67.8549 87.943 67.8966 89.493 67.8383C91.9847 67.7466 94.468 67.5883 96.9597 67.4716C98.868 67.3883 100.776 67.3299 102.693 67.2549C102.76 67.2549 102.826 67.2466 102.893 67.2383C103.21 67.1883 103.385 67.0383 103.393 66.6799C103.451 64.6883 103.551 62.6883 103.593 60.6966C103.626 59.1383 103.593 57.5716 103.593 56.0133C103.593 55.7216 103.551 55.4966 103.176 55.4799L103.168 55.4549Z" fill="#502314"/>
<path d="M119.349 55.3128C118.149 55.2628 116.94 55.1962 115.74 55.1378C114.674 55.0795 113.599 54.9795 112.532 54.9795C111.332 54.9795 110.124 55.0545 108.924 55.1462C108.74 55.1628 108.457 55.4128 108.415 55.5878C108.282 56.2045 108.174 56.8462 108.182 57.4712C108.224 62.3628 108.299 67.2628 108.365 72.1545C108.374 72.9628 108.382 73.7628 108.382 74.5712C108.382 74.8878 108.49 75.0712 108.84 75.0878C110.182 75.1378 111.515 75.2378 112.857 75.2545C113.74 75.2545 114.624 75.1295 115.507 75.0962C116.582 75.0628 117.657 75.0795 118.724 75.0712C119.515 75.0712 119.515 75.0628 119.607 74.2628C119.615 74.1628 119.624 74.0628 119.624 73.9628C119.69 72.4045 119.774 70.8545 119.815 69.2962C119.899 66.2128 119.924 57.2378 119.849 55.8378C119.832 55.4795 119.69 55.3378 119.34 55.3212L119.349 55.3128Z" fill="#502314"/>
<path d="M78.8682 81.0879C75.4016 81.0879 71.9432 81.0629 68.4766 81.0212C66.8099 81.0046 65.1349 80.9129 63.4682 80.8712C63.1099 80.8712 62.9766 80.7546 62.9766 80.3879C62.9932 78.7462 62.9932 77.1046 62.9766 75.4629C62.9766 75.0712 63.1349 74.9546 63.5016 74.9379C64.9599 74.8879 66.4182 74.7962 67.8766 74.7546C68.2766 74.7462 68.4432 74.5962 68.4432 74.2129C68.4349 73.2796 68.4266 72.3379 68.4266 71.4046C68.4099 65.7379 68.3849 60.0712 68.3932 54.4046C68.3932 53.3046 68.5349 52.2129 68.6016 51.1129C68.6266 50.6879 68.7849 50.4879 69.2682 50.4796C72.0266 50.4629 74.7849 50.3962 77.5349 50.3879C86.0099 50.3629 94.4849 50.3379 102.952 50.3629C107.827 50.3796 112.702 50.4629 117.585 50.5629C119.752 50.6046 121.91 50.7712 124.077 50.8962C124.802 50.9379 124.943 51.0879 124.935 51.8629C124.91 54.4546 124.927 57.0546 124.81 59.6462C124.635 63.5296 124.377 67.4129 124.143 71.2962C124.085 72.2462 124.027 73.1962 123.935 74.1462C123.893 74.6129 124.06 74.7379 124.51 74.7379C126.202 74.7379 127.893 74.7796 129.585 74.7796C130.01 74.7796 130.218 74.9796 130.218 75.3546C130.235 77.0129 130.227 78.6712 130.218 80.3296C130.218 80.6962 130.018 80.8712 129.618 80.8712C127.91 80.8796 126.202 80.9379 124.493 80.9379C115.952 80.9379 85.5349 81.0796 78.8682 81.0712V81.0879ZM82.7349 55.0796C79.7516 55.1712 76.7682 55.2712 73.7849 55.3546C73.4099 55.3629 73.2182 55.4629 73.2099 55.8879C73.1516 58.6796 73.0766 61.4629 73.0182 64.2462C73.0016 65.0796 73.0182 65.9212 73.0349 66.7546C73.0516 67.3796 73.3016 67.7046 73.7849 67.7462C74.8266 67.8296 75.8766 67.9462 76.9266 67.9379C79.5849 67.9129 82.2349 67.8212 84.8932 67.7712C86.4182 67.7462 87.9516 67.7879 89.4766 67.7296C91.9349 67.6379 94.3849 67.4796 96.8432 67.3712C98.7266 67.2879 100.61 67.2296 102.493 67.1546C102.56 67.1546 102.627 67.1462 102.693 67.1379C103.01 67.0879 103.177 66.9379 103.185 66.5879C103.243 64.6212 103.343 62.6546 103.385 60.6879C103.418 59.1462 103.385 57.6046 103.385 56.0712C103.385 55.7796 103.343 55.5629 102.968 55.5462C102.035 55.5046 101.11 55.3962 100.177 55.3796C95.5516 55.2962 90.9266 55.2379 86.3016 55.1712C85.1182 55.1546 82.7516 55.1129 82.7516 55.0796H82.7349ZM119.735 56.0296C119.718 55.6796 119.585 55.5379 119.235 55.5212C118.06 55.4712 116.885 55.4129 115.702 55.3462C114.652 55.2962 113.61 55.1879 112.56 55.1879C111.385 55.1879 110.202 55.2629 109.027 55.3462C108.843 55.3629 108.568 55.6046 108.535 55.7796C108.41 56.3879 108.302 57.0129 108.31 57.6212C108.352 62.4129 108.427 67.1962 108.485 71.9879C108.493 72.7796 108.502 73.5629 108.502 74.3546C108.502 74.6712 108.61 74.8462 108.952 74.8629C110.26 74.9129 111.568 75.0129 112.877 75.0212C113.743 75.0212 114.61 74.8962 115.468 74.8712C116.518 74.8379 117.568 74.8546 118.618 74.8462C119.393 74.8462 119.393 74.8379 119.477 74.0546C119.485 73.9546 119.493 73.8546 119.493 73.7629C119.56 72.2379 119.643 70.7212 119.685 69.1962C119.768 66.1796 119.793 57.3962 119.718 56.0212L119.735 56.0296Z" fill="#F5EBDC"/>
<path d="M96.7598 48.5712C92.8514 48.5712 88.9431 48.5545 85.0348 48.5712C79.5348 48.5962 74.0348 48.6795 68.5348 48.6878C67.1431 48.6878 65.7514 48.5212 64.3598 48.4212C63.8431 48.3878 63.6681 48.0712 63.7931 47.6128C64.1348 46.3545 64.4348 45.0712 64.8848 43.8378C66.3014 39.9212 67.9348 36.0962 69.7514 32.3462C70.0098 31.8045 70.3098 31.5295 70.9681 31.5295C74.8264 31.4878 78.6848 31.3545 82.5431 31.3212C88.4681 31.2628 94.4014 31.2295 100.326 31.2545C106.735 31.2795 113.135 31.3795 119.543 31.4462C120.251 31.4462 120.951 31.5212 121.66 31.5045C122.193 31.4878 122.551 31.6962 122.76 32.1545C123.293 33.3128 123.885 34.4545 124.318 35.6545C125.326 38.4212 126.293 41.2128 127.201 44.0128C127.601 45.2378 127.818 46.5212 128.118 47.7795C128.218 48.2045 128.026 48.3628 127.601 48.3712C124.86 48.4295 122.118 48.5462 119.376 48.5545C111.835 48.5795 104.301 48.5628 96.7598 48.5628V48.5712Z" fill="#F5EBDC"/>
<path d="M158.867 76.7626C158.333 76.6376 157.792 76.5543 157.25 76.4876C156.9 63.3043 157.267 50.1293 157.408 36.9376C157.408 36.2876 157.425 35.6293 157.433 34.9793C157.45 33.1876 157.267 31.396 157.267 29.6043C157.267 28.2543 156.167 27.1543 154.817 27.1543H138.608C135.833 27.1543 135.75 30.8876 135.775 32.871C135.858 38.546 135.508 44.2126 135.608 49.8793C135.767 58.721 136.942 67.571 136.975 76.4043C135.808 76.4543 134.65 76.6626 133.675 77.2626C132.867 77.7543 133.225 79.446 133.225 80.296C133.225 80.7293 133.583 81.0876 134.017 81.0876H160.125C160.558 81.0876 160.917 80.7293 160.917 80.296C160.917 78.4876 161.742 77.4126 158.867 76.7626Z" fill="#F5EBDC"/>
<path d="M154.399 34.4051C154.399 33.9051 154.216 33.3551 153.874 32.8217C153.532 32.2884 153.041 31.7884 152.441 31.3634C151.449 30.6634 149.691 29.8301 146.907 29.8301C144.124 29.8301 142.341 30.6634 141.357 31.3634C140.766 31.7884 140.274 32.2884 139.932 32.8217C139.599 33.3551 139.416 33.8967 139.416 34.4051V43.3634C139.416 44.0634 139.949 44.7967 140.807 45.2801C141.957 45.9301 143.724 46.1967 146.899 46.1967C150.074 46.1967 151.841 45.9301 152.991 45.2801C153.849 44.7967 154.382 44.0551 154.382 43.3634V34.4051H154.399Z" fill="#F5EBDC"/>
<path d="M153.249 38.7298C153.399 38.8465 153.499 39.0048 153.499 39.2215C153.499 39.5048 153.266 39.7881 152.916 39.7881C152.616 39.7881 152.549 39.5715 152.116 39.5715C151.766 39.5715 151.307 39.8215 151.307 40.5132C151.307 41.1298 151.641 41.4632 152.132 41.4632C152.282 41.4632 152.416 41.3882 152.416 41.2798C152.416 41.1882 152.332 41.1548 152.216 41.1548C151.974 41.1548 151.657 40.9882 151.657 40.6298C151.657 40.2382 151.949 40.0632 152.332 40.0632H152.541C153.274 40.0632 153.632 40.4632 153.632 41.0465C153.632 41.9632 152.991 42.5882 151.974 42.5882C150.957 42.5882 150.024 41.9298 150.024 40.5132C150.024 39.0965 151.007 38.3965 152.016 38.3965C152.574 38.3965 152.974 38.5382 153.241 38.7382" fill="#D52400"/>
<path d="M147.491 40.9044C147.491 40.8294 147.516 40.7877 147.566 40.7877C147.6 40.7877 147.625 40.8127 147.658 40.871L148.258 42.0377C148.491 42.4794 148.733 42.5877 149 42.5877C149.458 42.5877 149.708 42.246 149.708 41.821V39.146C149.708 38.7294 149.466 38.396 149.016 38.396C148.566 38.396 148.325 38.7294 148.325 39.146V40.0794C148.325 40.1544 148.3 40.1877 148.25 40.1877C148.216 40.1877 148.191 40.1627 148.158 40.1044L147.558 38.9377C147.325 38.496 147.091 38.3877 146.816 38.3877C146.358 38.3877 146.108 38.7294 146.108 39.1544V41.8294C146.108 42.246 146.35 42.5794 146.8 42.5794C147.25 42.5794 147.491 42.246 147.491 41.8294V40.896" fill="#D52400"/>
<path d="M141.591 41.821V41.2044C141.591 41.1544 141.616 41.1127 141.666 41.1127C141.733 41.1127 141.749 41.1794 141.766 41.2127C141.866 41.4544 142.158 41.9544 142.424 42.2544C142.608 42.4544 142.833 42.5794 143.066 42.5794C143.466 42.5794 143.808 42.2294 143.808 41.8544C143.808 41.621 143.708 41.446 143.516 41.2377C143.274 40.971 142.991 40.6294 142.883 40.471C142.841 40.4127 142.841 40.371 142.841 40.3544C142.841 40.3044 142.866 40.271 142.916 40.221C143.041 40.1044 143.333 39.8294 143.499 39.571C143.624 39.3794 143.674 39.196 143.674 39.0544C143.674 38.6794 143.333 38.3877 142.958 38.3877C142.716 38.3877 142.491 38.521 142.341 38.771C142.141 39.096 141.899 39.4794 141.741 39.6294C141.699 39.671 141.683 39.6794 141.649 39.6794C141.599 39.6794 141.574 39.646 141.574 39.5877V39.1544C141.574 38.7294 141.324 38.3877 140.866 38.3877C140.408 38.3877 140.158 38.7294 140.158 39.1544V41.821C140.158 42.246 140.408 42.5877 140.866 42.5877C141.324 42.5877 141.574 42.246 141.574 41.821" fill="#D52400"/>
<path d="M140.534 43.0293C140.284 43.0293 140.167 43.1543 140.167 43.3626C140.167 43.7376 140.509 44.2543 141.184 44.6376C142.309 45.271 144.242 45.4543 146.909 45.4543C149.576 45.4543 151.509 45.271 152.634 44.6376C153.309 44.2543 153.651 43.7376 153.651 43.3626C153.651 43.1543 153.542 43.0293 153.284 43.0293H140.526H140.534Z" fill="#FF8133"/>
<path d="M153.29 34.7625C153.54 34.7625 153.657 34.6292 153.657 34.3958C153.657 33.0125 151.532 30.5625 146.915 30.5625C142.299 30.5625 140.174 33.0042 140.174 34.3958C140.174 34.6292 140.29 34.7625 140.54 34.7625H153.299" fill="#FF8133"/>
<path d="M143.485 38.1377C144.185 38.1377 144.56 37.721 144.56 37.1877V35.7294C144.56 35.471 144.41 35.2627 144.135 35.2627C143.86 35.2627 143.71 35.471 143.71 35.7294V37.1377C143.71 37.2377 143.651 37.3627 143.493 37.3627C143.335 37.3627 143.285 37.2377 143.285 37.1377V35.7294C143.285 35.471 143.126 35.2627 142.851 35.2627C142.576 35.2627 142.426 35.471 142.426 35.7294V37.1877C142.426 37.7127 142.793 38.1377 143.493 38.1377" fill="#D52400"/>
<path d="M150.834 37.0382C151.043 37.0382 151.209 36.9132 151.209 36.6882C151.209 36.4632 151.043 36.3382 150.834 36.3382H150.534C150.459 36.3382 150.426 36.2965 150.426 36.2382V36.1715C150.426 36.1131 150.459 36.0715 150.534 36.0715H150.926C151.168 36.0715 151.359 35.9298 151.359 35.6715C151.359 35.4132 151.168 35.2715 150.926 35.2715H150.109C149.768 35.2715 149.601 35.4715 149.601 35.7382V37.6465C149.601 37.9131 149.768 38.1132 150.109 38.1132H150.926C151.168 38.1132 151.359 37.9715 151.359 37.7132C151.359 37.4548 151.168 37.3132 150.926 37.3132H150.534C150.459 37.3132 150.426 37.2715 150.426 37.2131V37.1298C150.426 37.0715 150.459 37.0298 150.534 37.0298H150.834" fill="#D52400"/>
<path d="M149.132 35.4881C149.232 35.5631 149.299 35.6798 149.299 35.8298C149.299 36.0298 149.14 36.2215 148.915 36.2215C148.715 36.2215 148.665 36.0715 148.382 36.0715C148.149 36.0715 147.849 36.2465 147.849 36.7215C147.849 37.1465 148.065 37.3798 148.39 37.3798C148.49 37.3798 148.582 37.3298 148.582 37.2465C148.582 37.1882 148.532 37.1632 148.449 37.1632C148.29 37.1632 148.074 37.0465 148.074 36.8048C148.074 36.5298 148.274 36.4132 148.532 36.4132H148.674C149.157 36.4132 149.399 36.6881 149.399 37.0965C149.399 37.7298 148.974 38.1632 148.29 38.1632C147.607 38.1632 146.99 37.7048 146.99 36.7298C146.99 35.7548 147.64 35.2715 148.315 35.2715C148.699 35.2715 148.949 35.3715 149.132 35.5048" fill="#D52400"/>
<path d="M145.609 39.2132C145.609 38.7548 145.343 38.3965 144.859 38.3965C144.376 38.3965 144.109 38.7632 144.109 39.2132V41.7715C144.109 42.2298 144.376 42.5882 144.859 42.5882C145.343 42.5882 145.609 42.2215 145.609 41.7715V39.2132Z" fill="#D52400"/>
<path d="M141.932 36.6465C141.932 36.6465 141.89 36.6132 141.89 36.5965C141.89 36.5715 141.907 36.5632 141.924 36.5382C142.007 36.4465 142.09 36.2882 142.09 36.0715C142.09 35.5548 141.74 35.2715 141.199 35.2715H140.682C140.34 35.2715 140.174 35.4715 140.174 35.7382V37.6465C140.174 37.9131 140.34 38.1132 140.682 38.1132H141.29C141.865 38.1132 142.215 37.7298 142.215 37.2465C142.215 36.8632 141.982 36.6798 141.932 36.6382V36.6465ZM140.932 36.0215C140.932 35.9632 140.965 35.9215 141.04 35.9215H141.099C141.282 35.9215 141.34 36.0548 141.34 36.1632C141.34 36.2632 141.282 36.4132 141.099 36.4132H141.04C140.965 36.4132 140.932 36.3715 140.932 36.3132V36.0215ZM141.115 37.4715H141.04C140.965 37.4715 140.932 37.4298 140.932 37.3715V37.0382C140.932 36.9798 140.965 36.9382 141.04 36.9382H141.115C141.324 36.9382 141.382 37.0798 141.382 37.2048C141.382 37.3132 141.324 37.4798 141.115 37.4798V37.4715Z" fill="#D52400"/>
<path d="M146.808 37.3876C146.683 37.221 146.567 37.0793 146.517 36.9293C146.5 36.896 146.517 36.8626 146.55 36.8376C146.683 36.7376 146.842 36.5043 146.842 36.1376C146.842 35.5876 146.392 35.2793 145.842 35.2793H145.35C145.008 35.2793 144.842 35.4793 144.842 35.746V37.6793C144.842 37.9376 144.992 38.146 145.267 38.146C145.542 38.146 145.692 37.9376 145.692 37.6793V37.221C145.692 37.1626 145.717 37.1376 145.758 37.1376C145.808 37.1376 145.825 37.171 145.833 37.221C145.875 37.4376 145.975 37.7376 146.092 37.8876C146.242 38.0793 146.375 38.146 146.517 38.146C146.742 38.146 146.933 37.971 146.933 37.746C146.933 37.596 146.875 37.4876 146.792 37.3876H146.808ZM145.817 36.4876H145.758C145.683 36.4876 145.65 36.446 145.65 36.3876V36.096C145.65 36.0376 145.683 35.996 145.758 35.996H145.817C146 35.996 146.058 36.1293 146.058 36.2376C146.058 36.346 146 36.4876 145.817 36.4876Z" fill="#D52400"/>
<path d="M153.517 37.3876C153.367 37.2043 153.276 37.0793 153.226 36.9293C153.209 36.896 153.226 36.8626 153.259 36.8376C153.392 36.7376 153.551 36.5043 153.551 36.1376C153.551 35.5876 153.092 35.2793 152.551 35.2793H152.059C151.717 35.2793 151.551 35.4793 151.551 35.746V37.6793C151.551 37.9376 151.701 38.146 151.976 38.146C152.251 38.146 152.401 37.9376 152.401 37.6793V37.221C152.401 37.1626 152.426 37.1376 152.467 37.1376C152.517 37.1376 152.534 37.171 152.542 37.221C152.584 37.4376 152.684 37.7376 152.801 37.8876C152.951 38.0793 153.084 38.146 153.226 38.146C153.451 38.146 153.642 37.971 153.642 37.746C153.642 37.596 153.584 37.4876 153.501 37.3876H153.517ZM152.526 36.4876H152.467C152.392 36.4876 152.359 36.446 152.359 36.3876V36.096C152.359 36.0376 152.392 35.996 152.467 35.996H152.526C152.709 35.996 152.767 36.1293 152.767 36.2376C152.767 36.346 152.709 36.4876 152.526 36.4876Z" fill="#D52400"/>
<path d="M153.574 42.3711C153.449 42.3711 153.357 42.4711 153.357 42.5878C153.357 42.7128 153.449 42.8044 153.574 42.8044C153.699 42.8044 153.791 42.7128 153.791 42.5878C153.791 42.4711 153.699 42.3711 153.574 42.3711ZM153.574 42.7544C153.491 42.7544 153.407 42.6961 153.407 42.5794C153.407 42.4628 153.491 42.4128 153.574 42.4128C153.657 42.4128 153.741 42.4794 153.741 42.5794C153.741 42.6794 153.657 42.7544 153.574 42.7544Z" fill="#D52400"/>
<path d="M153.599 42.605C153.641 42.605 153.657 42.5717 153.657 42.5383C153.657 42.4967 153.624 42.4717 153.574 42.4717H153.516C153.516 42.4717 153.491 42.48 153.491 42.4967V42.68C153.491 42.68 153.499 42.705 153.516 42.705C153.532 42.705 153.541 42.6967 153.541 42.68V42.6217L153.607 42.6967C153.607 42.6967 153.616 42.705 153.624 42.705C153.641 42.705 153.649 42.6967 153.649 42.68C153.649 42.68 153.649 42.6717 153.649 42.6633L153.599 42.6133V42.605ZM153.549 42.5717V42.5133H153.582C153.582 42.5133 153.616 42.5217 153.616 42.5467C153.616 42.5633 153.599 42.58 153.574 42.58H153.541L153.549 42.5717Z" fill="#D52400"/>
</g>
<defs>
<clipPath id="clip0_6581_68629">
<rect width="25.7471" height="25.7471" fill="white" transform="translate(185.379 91.3223)"/>
</clipPath>
<clipPath id="clip1_6581_68629">
<rect width="100" height="100" fill="white" transform="translate(62 0.196289)"/>
</clipPath>
</defs>
</svg>
