<svg width="108" height="117" viewBox="0 0 108 117" fill="none" xmlns="http://www.w3.org/2000/svg">
<g clip-path="url(#clip0_6524_76679)">
<path d="M0.00260545 51.4838C0.00260545 51.4838 18.5361 70.2688 60.6069 65.4509C65.2709 59.4023 68.2544 52.1803 70.7752 44.9486C54.1678 47.1429 39.4487 46.685 23.8988 39.2435C19.7068 37.24 11.3039 31.9165 11.5494 31.6875C10.7375 33.4811 -0.00683594 51.4838 -0.00683594 51.4838H0.00260545Z" fill="#D72300"/>
<path d="M31.5994 52.0195C31.5994 52.0195 48.0274 48.9665 60.1974 43.4045C68.0998 39.7982 84.49 23.6082 84.49 23.6082C84.49 23.6082 84.3768 19.5154 84.0841 18.1606C82.6962 11.7399 81.686 6.16835 78.9857 0.186523C79.1179 0.482276 70.8756 8.48666 69.1195 10.1849C65.6356 13.5526 61.859 16.6151 57.8559 19.3341C49.8496 24.7721 28.2666 31.2405 28.2666 31.2405C28.2666 31.2405 29.0597 35.3142 29.2863 36.3351C30.0321 39.7219 31.6089 52.0099 31.6089 52.0099L31.5994 52.0195Z" fill="#198737"/>
<path d="M35.981 66.244C48.5758 78.6847 48.6702 80.3638 61.0478 87.8244C70.4609 93.5009 88.9282 100.351 88.9282 100.351C88.9282 100.351 92.0533 98.2043 93.2807 97.3457C98.5301 93.6822 103.459 89.5607 108.009 85.0386C100.881 84.781 84.0659 76.4332 76.4656 71.5485C69.9511 67.3603 61.9637 58.1156 57.4601 52.0098C57.5828 52.3437 40.324 63.5536 35.981 66.2345V66.244Z" fill="#FFAA00"/>
<path d="M3.58366 113.86C11.4861 116.503 29.2831 118.106 46.7213 115.091C52.7922 114.042 58.8158 112.162 63.9047 108.661C67.3885 101 69.003 92.4898 68.5687 84.0752C68.597 84.7144 61.9409 87.1472 61.2044 87.443C58.7025 88.4542 56.1438 89.3415 53.5569 90.1047C48.383 91.6407 43.0675 92.7093 37.7048 93.2912C32.3421 93.8732 26.6867 93.959 21.1918 93.5202C18.501 93.3008 9.38067 91.7457 9.38067 91.7457C9.38067 91.7457 5.79294 107.506 3.57422 113.851L3.58366 113.86Z" fill="#E4D7C8"/>
<path d="M53.5613 90.1143L53.3804 91.0492" stroke="white" stroke-width="0.751775" stroke-miterlimit="10"/>
<path d="M52.9777 93.0801L49.1445 112.371" stroke="white" stroke-width="0.751775" stroke-miterlimit="10" stroke-dasharray="2.18 2.18"/>
<path d="M48.9397 113.393L48.7588 114.328" stroke="white" stroke-width="0.751775" stroke-miterlimit="10"/>
<path d="M67.041 63.3818L66.2856 63.9638" stroke="white" stroke-width="0.751775" stroke-miterlimit="10"/>
<path d="M64.6696 65.1943L49.3179 76.929" stroke="white" stroke-width="0.751775" stroke-miterlimit="10" stroke-dasharray="2.16 2.16"/>
<path d="M48.52 77.5391L47.7646 78.121" stroke="white" stroke-width="0.751775" stroke-miterlimit="10"/>
<path d="M23.9841 39.1963L23.5498 40.0454" stroke="white" stroke-width="0.751775" stroke-miterlimit="10"/>
<path d="M22.6623 41.7627L14.2783 58.0863" stroke="white" stroke-width="0.751775" stroke-miterlimit="10" stroke-dasharray="2.03 2.03"/>
<path d="M13.8318 58.9453L13.3975 59.7944" stroke="white" stroke-width="0.751775" stroke-miterlimit="10"/>
<path d="M69.1133 10.1934L69.3588 11.1092" stroke="white" stroke-width="0.751775" stroke-miterlimit="10"/>
<path d="M69.8525 12.9707L74.5071 30.5918" stroke="white" stroke-width="0.751775" stroke-miterlimit="10" stroke-dasharray="2.01 2.01"/>
<path d="M74.7466 31.5166L74.9826 32.442" stroke="white" stroke-width="0.751775" stroke-miterlimit="10"/>
</g>
<defs>
<clipPath id="clip0_6524_76679">
<rect width="108" height="116.526" fill="white" transform="translate(0 0.196289)"/>
</clipPath>
</defs>
</svg>
