<svg width="85" height="44" viewBox="0 0 85 44" fill="none" xmlns="http://www.w3.org/2000/svg">
<g clip-path="url(#clip0_735_23249)">
<path d="M29.6737 35.2278C29.1416 42.0936 35.8007 47.6007 42.6872 41.0913C43.1986 40.6057 43.6688 40.0685 44.0872 39.4898C45.0275 38.2086 45.7714 36.7828 46.2673 35.3363C43.1676 35.3414 40.3263 35.3156 36.8288 35.2794C34.7468 35.2691 32.4221 35.2484 29.6737 35.2278Z" fill="#FFAA00"/>
<path d="M66.1304 31.9938C65.8618 32.0093 65.5621 32.1953 65.03 32.5982C64.6581 34.5148 64.7614 36.3643 65.5208 37.7385C69.912 45.7047 80.1358 39.5363 80.9727 31.7406C77.4442 31.6683 69.9895 31.7716 66.1304 31.9938Z" fill="#FFAA00"/>
<path d="M83.7376 23.852C82.2962 19.9619 78.0807 17.8024 74.4334 16.857C74.2939 16.8209 74.1544 16.7847 74.0149 16.7537C72.3049 14.0363 70.6414 11.6444 69.1588 8.73588C69.3137 8.79787 69.4894 8.85986 69.6754 8.90636C70.8894 9.22149 72.5529 9.1595 72.5529 8.71005C72.5271 6.99489 71.3182 1.6221 71.2872 1.45162C71.22 0.573377 70.9979 0.273741 70.4038 0.123923C70.2333 0.077428 70.0267 0.0464311 69.7839 0.0154343C68.5905 -0.13955 66.648 1.67893 66.2709 4.17418L65.2532 3.33209C65.0155 3.14611 64.7055 3.01179 64.3439 2.9188C62.8406 2.53134 60.5003 2.85681 59.5704 3.29593C57.6538 4.20517 57.8811 7.05171 59.4671 7.46501C59.7461 7.53733 60.0663 7.53217 60.4228 7.43401C61.0634 7.25319 61.6627 7.22736 62.2103 7.37202C63.8428 7.79564 65.0362 9.67095 65.6664 13.0599C66.0539 15.1522 66.586 16.7279 66.7668 17.6733C63.6826 18.815 60.49 21.7494 58.4597 24.9885C56.2331 26.1148 52.8079 24.193 52.126 23.2682C50.9998 21.7442 50.3747 18.2726 53.6965 14.9352C54.6987 13.9278 53.8412 12.0887 52.7459 11.8097C52.7149 11.8046 52.6891 11.7994 52.6633 11.7942C47.2182 10.8023 42.6255 10.9625 36.9634 10.7972C34.9176 10.7352 33.7965 13.5817 35.0209 14.6511C31.6216 15.705 30.5729 16.139 28.4806 18.1589C26.254 20.308 24.6576 23.0926 23.8569 26.2388C23.5624 27.4063 23.4953 28.796 24.0584 29.8137C24.544 30.6971 25.2982 31.1363 26.13 31.3532C26.8016 31.5289 27.5248 31.5599 28.2119 31.5599C29.3795 31.565 30.4489 31.5754 31.4769 31.5805C31.9987 31.5857 32.5308 31.5909 33.0216 31.596C33.5227 31.596 33.9928 31.6012 34.463 31.6064C34.7109 31.6064 34.9692 31.6115 35.2069 31.6115C36.7722 31.627 38.1877 31.6374 39.5258 31.6529H39.6446C40.1664 31.658 40.6778 31.6632 41.1841 31.6632C41.3339 31.6632 41.4889 31.6684 41.6387 31.6684C42.0469 31.6684 42.455 31.6735 42.8528 31.6735C43.0388 31.6735 43.2247 31.6735 43.4107 31.6735C43.917 31.6735 44.4284 31.6787 44.9399 31.6787H45.1155C45.6941 31.6787 46.2728 31.6787 46.8617 31.6787H46.9289C50.1629 31.6684 53.7275 31.627 58.6922 31.5237C61.797 31.7459 62.8096 28.517 65.9299 28.3362C66.3277 28.3155 66.7875 28.2949 67.2524 28.2742C67.4953 28.2639 67.7381 28.2535 67.9964 28.2432C68.3528 28.2277 68.7351 28.2174 69.1174 28.2071C69.3706 28.1967 69.6185 28.1916 69.8768 28.1812C70.3676 28.1657 70.8791 28.1502 71.3905 28.1399C71.5868 28.1347 71.778 28.1296 71.9691 28.1244C72.6097 28.1141 73.2555 28.1037 73.9013 28.0934C74.2319 28.0882 74.5625 28.0831 74.8932 28.0779C75.2496 28.0727 75.6061 28.0676 75.9522 28.0624C76.2829 28.0624 76.6032 28.0572 76.9183 28.0572C77.2386 28.0572 77.5589 28.0521 77.8689 28.0521C78.1892 28.0521 78.494 28.0521 78.7936 28.0521C79.0726 28.0521 79.336 28.0521 79.5943 28.0521C79.8785 28.0521 80.1575 28.0572 80.4158 28.0624C80.8446 28.0676 81.263 28.0727 81.5988 28.0831C84.1096 28.1554 85.4528 28.4912 83.7376 23.852Z" fill="#FFAA00"/>
<path d="M36.7839 31.6116H6.66015C5.95756 31.6116 5.38928 31.0433 5.38928 30.3407C5.38928 29.6381 5.95756 29.0698 6.66015 29.0698H36.7839C37.4865 29.0698 38.0548 29.6381 38.0548 30.3407C38.0548 31.0433 37.4865 31.6116 36.7839 31.6116Z" fill="#FFAA00"/>
<path d="M46.7566 17.2032H20.0684C19.3658 17.2032 18.7975 16.635 18.7975 15.9324C18.7975 15.2298 19.3658 14.6615 20.0684 14.6615H46.7566C47.4592 14.6615 48.0275 15.2298 48.0275 15.9324C48.0275 16.635 47.4592 17.2032 46.7566 17.2032Z" fill="#FFAA00"/>
<path d="M13.9707 27.0448C13.2681 27.0448 12.6998 26.4765 12.6998 25.7739C12.6998 25.0713 13.2629 24.4979 13.9707 24.4979L44.7092 24.3945H44.7144C45.417 24.3945 45.9853 24.9628 45.9853 25.6654C45.9853 26.368 45.4221 26.9414 44.7144 26.9414L13.9707 27.0448Z" fill="#FFAA00"/>
<path d="M8.94265 26.9466H1.76171C1.05912 26.9466 0.490845 26.3731 0.490845 25.6705C0.490845 24.9679 1.05912 24.3997 1.76171 24.3997H8.94265C9.64524 24.3997 10.2135 24.9679 10.2135 25.6705C10.2135 26.3731 9.64524 26.9466 8.94265 26.9466Z" fill="#FFAA00"/>
<path d="M38.5321 37.8574H20.0684C19.3658 37.8574 18.7975 37.2891 18.7975 36.5865C18.7975 35.8839 19.3658 35.3157 20.0684 35.3157H38.5321C39.2347 35.3157 39.803 35.8839 39.803 36.5865C39.803 37.2891 39.2347 37.8574 38.5321 37.8574Z" fill="#FFAA00"/>
</g>
<defs>
<clipPath id="clip0_735_23249">
<rect width="84.0169" height="44" fill="white" transform="translate(0.491577)"/>
</clipPath>
</defs>
</svg>
