<svg width="32" height="33" viewBox="0 0 32 33" fill="none" xmlns="http://www.w3.org/2000/svg">
<g clip-path="url(#clip0_668_271)">
<path d="M16 32.5C24.8366 32.5 32 25.3366 32 16.5C32 7.66344 24.8366 0.5 16 0.5C7.16344 0.5 0 7.66344 0 16.5C0 25.3366 7.16344 32.5 16 32.5Z" fill="#F5EBDC"/>
<path d="M10.6512 12.0839C10.589 12.0123 10.47 12.035 10.4399 12.123C10.3108 12.4995 9.94381 13.2679 9.04466 13.5473C9.71177 13.491 10.6322 13.4195 11.6563 13.3519L10.6512 12.0839Z" fill="#CE0E2D"/>
<path d="M9.93256 16.8449C10.5801 15.4968 10.8962 14.8744 11.178 14.2992C10.0965 14.4082 8.68239 14.5365 8.37873 14.578C7.99279 14.6308 7.95786 14.5002 7.86907 14.2838C7.79745 14.1089 7.81757 14.1777 7.7791 14.0698C7.71221 13.8829 7.64769 13.6944 7.96378 13.6399C7.42393 13.5933 6.76925 13.4071 5.97665 13.0095C5.92278 12.9829 5.86714 12.997 5.83222 13.0306C5.7967 13.0646 5.7819 13.118 5.80972 13.1691C7.48668 16.2515 5.56762 17.1573 4.88512 17.3725C4.79337 17.4015 4.76969 17.5156 4.84428 17.5752L8.39945 20.1698C8.40951 20.1465 8.42016 20.1238 8.43023 20.1017C9.12102 18.6689 9.55787 17.6246 9.93256 16.8444V16.8449Z" fill="#CE0E2D"/>
<path d="M9.59593 20.9614L11.2599 22.1755L9.55746 23.7911C9.48406 23.8609 9.53555 23.9808 9.63855 23.9808H12.6645V25.2215C12.6645 25.2516 12.7113 25.3249 12.7983 25.3113C13.4459 25.2096 14.9168 24.9779 16.0137 26.066C16.0315 26.0836 16.067 26.1 16.112 26.1C16.1546 26.1 16.1925 26.083 16.2102 26.066C17.3071 24.9779 18.7781 25.2091 19.4256 25.3113C19.5132 25.3249 19.5594 25.2516 19.5594 25.2215V23.9808H22.5854C22.6884 23.9808 22.7399 23.8609 22.6665 23.7911L20.9641 22.1755L22.5919 20.9875C22.1456 20.9818 21.775 20.8597 21.5921 20.5525C21.4974 20.3935 21.4714 20.201 21.6217 20.013C21.691 19.9261 21.7798 19.8529 21.8194 19.8234C21.878 19.7808 21.926 19.7609 21.9668 19.7632C22.0781 19.7688 22.1071 19.8262 22.1438 20.0471C22.1882 20.3168 22.3569 20.481 22.5907 20.4764C22.6706 20.4747 22.9565 20.4537 23.043 20.176C23.1057 19.975 23.0465 19.7302 22.8772 19.4344C22.6588 19.0528 22.5593 18.7325 22.5741 18.4241C22.3723 18.6507 22.1669 18.9034 21.9739 19.1436C21.173 20.1408 20.4663 21.1249 19.576 20.9784C18.8615 20.8609 18.9456 20.2078 18.9645 20.0783C19.0219 19.6928 19.1912 19.1839 19.4896 18.5241C18.6981 19.2771 17.722 20.4758 17.5539 20.6684C17.3799 20.8677 17.1822 20.7768 17.1123 20.7365L16.8128 20.5536C16.6127 20.4247 16.5565 20.3464 16.6228 20.1135C16.7714 19.5905 17.0869 18.7671 17.2982 18.2242C16.3748 19.0704 15.2022 20.4543 14.9843 20.7047C14.821 20.8927 14.6351 20.8183 14.5137 20.7462C14.3959 20.6757 14.3575 20.6502 14.2746 20.5991C14.0923 20.4866 14.0396 20.4105 14.1313 20.117C14.2124 19.8574 14.364 19.448 14.5072 19.0891C13.7661 20.0982 13.215 20.5514 12.8208 20.732C12.6432 20.8132 12.323 20.8887 12.043 20.8285C11.6713 20.7484 11.3913 20.4713 11.4949 19.8449C11.6328 19.0136 12.3899 17.4979 12.6876 16.8977C12.8119 16.6473 12.9463 16.5785 13.1695 16.7103C13.3192 16.7989 13.4352 16.8665 13.5601 16.9528C13.7596 17.0902 13.8028 17.1708 13.6619 17.4525C13.2938 18.1902 12.9356 18.9602 12.7521 19.4435C12.7012 19.578 12.5876 19.9114 12.7154 20.0289C12.7498 20.0607 12.8208 20.0942 12.9706 20.046C13.318 19.9335 14.1929 18.9659 15.2673 17.218C15.3395 17.1061 15.3945 17.0158 15.4306 16.9607C15.5277 16.8119 15.6218 16.7143 15.8687 16.8591C16.0042 16.9386 16.1327 17.0169 16.2759 17.1169C16.4659 17.2498 16.4464 17.3594 16.3369 17.5888C16.2209 17.8307 15.8924 18.5627 15.5165 19.4185C16.2842 18.578 17.416 17.4917 17.8049 17.1521C17.915 17.0556 18.044 17.0209 18.2033 17.1186C18.3832 17.2288 18.4945 17.2992 18.5987 17.3673C18.7485 17.4656 18.7792 17.5382 18.6608 17.7989C18.5235 18.101 18.3193 18.5269 17.9434 19.5082C18.5744 18.7847 19.4262 17.938 20.0057 17.4252C20.1721 17.2782 20.3218 17.2259 20.5361 17.3611C20.6444 17.4292 20.6764 17.4559 20.8362 17.5632C21.0239 17.6887 21.0943 17.7694 20.9291 18.0658C20.7095 18.4588 20.4183 19.0045 20.1886 19.7268C20.1348 19.8955 19.9915 20.2657 20.188 20.3123C20.371 20.356 20.8303 19.8728 21.4252 19.126C21.9455 18.4724 22.4072 17.9465 22.9636 17.4321C23.114 17.2935 23.3342 17.1021 23.481 16.9908C23.5935 16.9062 23.7195 16.8295 23.8172 16.8227C23.8865 16.8182 23.9285 16.8347 24.0108 16.9096C24.0771 16.9698 24.0889 16.9817 24.1327 17.0226C24.2227 17.1067 24.27 17.143 24.2754 17.2083C24.2842 17.3173 24.2286 17.3486 24.1013 17.4474L24.0404 17.4962C23.7758 17.7103 23.4768 17.9914 23.6799 18.4139C23.7474 18.5547 23.9457 18.9051 24.0368 19.168C24.1516 19.498 24.1321 19.7075 24.1161 19.8234C24.1132 19.8438 24.109 19.8631 24.1055 19.8836L27.2682 17.5757C27.3428 17.5161 27.3197 17.4025 27.2274 17.373C26.5448 17.1578 24.6258 16.2526 26.3027 13.1696C26.3306 13.1185 26.3158 13.0646 26.2803 13.0311C26.2447 12.997 26.1891 12.9828 26.1358 13.01C22.9228 14.6188 21.9792 12.7778 21.7543 12.123C21.7241 12.035 21.6051 12.0123 21.543 12.0838L19.6861 14.4263L20.1602 7.84298C20.1691 7.75041 20.0685 7.68568 19.982 7.7277C19.3404 8.03776 17.3166 8.6999 16.2298 5.38296C16.212 5.32731 16.1617 5.30005 16.112 5.30005C16.0622 5.30005 16.0119 5.32787 15.9936 5.38296C14.9074 8.70046 12.883 8.03833 12.2419 7.7277C12.1555 7.68568 12.0542 7.75041 12.0637 7.84298L12.4568 13.3031C13.6643 13.2304 14.9583 13.169 16.122 13.1475C16.3819 13.1429 16.4819 13.1492 16.5684 13.3292C16.6489 13.4961 16.6595 13.4927 16.7424 13.6835C16.8258 13.8749 16.6867 13.9692 16.5026 13.9766C15.1803 14.0288 13.8975 14.1163 12.6432 14.2037C12.1093 15.3599 9.80311 20.5122 9.59475 20.9619L9.59593 20.9614ZM14.0313 16.2509C13.9934 16.2566 13.9555 16.26 13.9177 16.26C13.5678 16.26 13.2949 16.0124 13.2683 15.6711C13.2393 15.2923 13.5323 14.9346 13.9212 14.8744C13.9591 14.8687 13.997 14.8653 14.0349 14.8653C14.3847 14.8653 14.6576 15.1129 14.6842 15.4536C14.7132 15.8324 14.4208 16.1901 14.0313 16.2503V16.2509Z" fill="#CE0E2D"/>
</g>
<defs>
<clipPath id="clip0_668_271">
<rect width="32" height="32" fill="white" transform="translate(0 0.5)"/>
</clipPath>
</defs>
</svg>
