<svg width="24" height="24" viewBox="0 0 24 24" fill="none" xmlns="http://www.w3.org/2000/svg">
<g clip-path="url(#clip0_735_22489)">
<path fill-rule="evenodd" clip-rule="evenodd" d="M12.0011 0C18.6248 0 24.0022 5.37736 24.0022 11.9989C24.0022 18.6204 18.6248 24 12.0011 24C5.37736 24 0 18.6226 0 11.9989C0 5.37515 5.37736 0 12.0011 0Z" fill="#ED1F24"/>
<path d="M18.5695 8.69797C18.4123 8.10688 17.9474 7.64198 17.3563 7.4848C16.2871 7.19922 11.9989 7.19922 11.9989 7.19922C11.9989 7.19922 7.71073 7.19922 6.64145 7.4848C6.05258 7.64198 5.58768 8.10688 5.42828 8.69797C5.1427 9.76725 5.1427 11.9988 5.1427 11.9988C5.1427 11.9988 5.1427 14.2303 5.42828 15.2996C5.58546 15.8907 6.05037 16.3556 6.64145 16.5127C7.71073 16.7983 11.9989 16.7983 11.9989 16.7983C11.9989 16.7983 16.2871 16.7983 17.3563 16.5127C17.9474 16.3556 18.4101 15.8907 18.5695 15.2996C18.8551 14.2303 18.8551 11.9988 18.8551 11.9988C18.8551 11.9988 18.8551 9.76725 18.5695 8.69797Z" fill="white"/>
<path d="M10.6285 14.0576L14.1906 11.9988L10.6285 9.94214V14.0576Z" fill="#ED1F24"/>
</g>
<defs>
<clipPath id="clip0_735_22489">
<rect width="24" height="24" fill="white"/>
</clipPath>
</defs>
</svg>
