<svg width="24" height="24" viewBox="0 0 24 24" fill="none" xmlns="http://www.w3.org/2000/svg">
<g clip-path="url(#clip0_735_22485)">
<path d="M12 24C18.6274 24 24 18.6274 24 12C24 5.37258 18.6274 0 12 0C5.37258 0 0 5.37258 0 12C0 18.6274 5.37258 24 12 24Z" fill="black"/>
<path d="M4.65627 5.09082L10.3553 12.7107L4.62073 18.9058H5.91105L10.9317 13.4818L14.9881 18.9058H19.3799L13.3594 10.8579L18.6968 5.09082H17.4065L12.783 10.0868L9.04646 5.09082H4.65472H4.65627ZM6.55389 6.04272H8.57205L17.4822 17.957H15.4641L6.55389 6.04272Z" fill="white"/>
</g>
<defs>
<clipPath id="clip0_735_22485">
<rect width="24" height="24" fill="white"/>
</clipPath>
</defs>
</svg>
