<svg width="110" height="25" viewBox="0 0 110 25" fill="none" xmlns="http://www.w3.org/2000/svg">
<path d="M11.7888 11.833L3.33057 20.8121C3.58688 21.7878 4.47983 22.5071 5.53814 22.5071C5.95981 22.5071 6.35668 22.3913 6.69567 22.1929L6.72047 22.1764L16.237 16.6864L11.7805 11.833H11.7888Z" fill="#EA4335"/>
<path d="M20.3516 10.3035L16.2424 7.91406L11.6123 12.0316L16.259 16.6782L20.3434 14.3218C21.0627 13.9332 21.5505 13.1808 21.5505 12.3044C21.5505 11.428 21.071 10.6839 20.3599 10.2953L20.3516 10.3035Z" fill="#FBBC04"/>
<path d="M3.33369 3.77194C3.28408 3.96211 3.25928 4.15227 3.25928 4.35897V20.2171C3.25928 20.4238 3.28408 20.614 3.33369 20.8041L12.0813 12.0565L3.33369 3.76367V3.77194Z" fill="#4285F4"/>
<path d="M11.8549 12.2965L16.2287 7.92267L6.72047 2.40787C6.37321 2.20117 5.96808 2.07715 5.53814 2.07715C4.47983 2.07715 3.58688 2.79647 3.33057 3.7721L11.8467 12.2882L11.8549 12.2965Z" fill="#34A853"/>
<path d="M29.8168 9.45528C29.1911 9.0977 28.6845 8.60105 28.317 7.97528C27.9495 7.34951 27.7607 6.65421 27.7607 5.88938C27.7607 5.12455 27.9495 4.42925 28.317 3.80348C28.6845 3.17771 29.1811 2.68107 29.8168 2.32348C30.4426 1.9659 31.1379 1.78711 31.8829 1.78711C32.4788 1.78711 33.0252 1.89637 33.5417 2.10496C34.0582 2.31355 34.4853 2.61154 34.823 2.99892L33.9688 3.85314C33.7105 3.56509 33.4125 3.34657 33.055 3.19758C32.6974 3.04858 32.31 2.96912 31.8729 2.96912C31.3664 2.96912 30.8995 3.08831 30.4525 3.3267C30.0056 3.56509 29.6579 3.91274 29.3997 4.35972C29.1315 4.8067 29.0023 5.31328 29.0023 5.89931C29.0023 6.48535 29.1315 6.99193 29.3997 7.43891C29.6678 7.88589 30.0155 8.23354 30.4525 8.47193C30.8896 8.71031 31.3664 8.82951 31.8829 8.82951C32.3497 8.82951 32.747 8.75998 33.055 8.62092C33.3728 8.48186 33.6509 8.29313 33.8992 8.06468C34.0582 7.90575 34.1972 7.7071 34.3065 7.45877C34.4158 7.21045 34.4952 6.9522 34.535 6.66414H31.8729V5.57153H35.707C35.7468 5.78012 35.7666 5.98871 35.7666 6.20723C35.7666 6.70388 35.6872 7.18065 35.5382 7.63757C35.3892 8.09448 35.1409 8.49179 34.8031 8.82951C34.0681 9.61421 33.0947 10.0016 31.8928 10.0016C31.1478 10.0016 30.4625 9.8228 29.8268 9.46521L29.8168 9.45528Z" fill="#502314"/>
<path d="M38.1167 9.60423C37.6697 9.34597 37.3221 8.98839 37.0737 8.53148C36.8254 8.07457 36.6963 7.57792 36.6963 7.02168C36.6963 6.46544 36.8155 5.95887 37.0737 5.51189C37.3221 5.05498 37.6697 4.69739 38.1167 4.43914C38.5637 4.18089 39.0702 4.05176 39.6265 4.05176C40.1827 4.05176 40.6992 4.18089 41.1363 4.44907C41.5833 4.71726 41.9309 5.07484 42.1792 5.52182C42.4276 5.97873 42.5567 6.47538 42.5567 7.02168C42.5567 7.56799 42.4375 8.0845 42.1792 8.53148C41.9309 8.98839 41.5833 9.34597 41.1363 9.60423C40.6893 9.86248 40.1827 9.99161 39.6265 9.99161C39.0702 9.99161 38.5537 9.86248 38.1167 9.60423ZM40.4906 8.66061C40.7489 8.51161 40.9674 8.29309 41.1263 8.01497C41.2853 7.73685 41.3647 7.39913 41.3647 7.02168C41.3647 6.64423 41.2853 6.31645 41.1263 6.03833C40.9674 5.76021 40.7588 5.54169 40.4906 5.39269C40.2225 5.2437 39.9443 5.16424 39.6364 5.16424C39.3285 5.16424 39.0404 5.2437 38.7822 5.39269C38.514 5.54169 38.3054 5.76021 38.1465 6.03833C37.9876 6.31645 37.9081 6.64423 37.9081 7.02168C37.9081 7.39913 37.9876 7.73685 38.1465 8.01497C38.3054 8.29309 38.514 8.51161 38.7822 8.66061C39.0404 8.8096 39.3285 8.88906 39.6364 8.88906C39.9443 8.88906 40.2324 8.8096 40.4906 8.66061Z" fill="#502314"/>
<path d="M44.7964 9.60423C44.3494 9.34597 44.0017 8.98839 43.7534 8.53148C43.5051 8.07457 43.376 7.57792 43.376 7.02168C43.376 6.46544 43.4952 5.95887 43.7534 5.51189C44.0017 5.05498 44.3494 4.69739 44.7964 4.43914C45.2434 4.18089 45.7499 4.05176 46.3062 4.05176C46.8624 4.05176 47.3789 4.18089 47.816 4.44907C48.2629 4.71726 48.6106 5.07484 48.8589 5.52182C49.1072 5.97873 49.2364 6.47538 49.2364 7.02168C49.2364 7.56799 49.1172 8.0845 48.8589 8.53148C48.6106 8.98839 48.2629 9.34597 47.816 9.60423C47.369 9.86248 46.8624 9.99161 46.3062 9.99161C45.7499 9.99161 45.2334 9.86248 44.7964 9.60423ZM47.1703 8.66061C47.4286 8.51161 47.6471 8.29309 47.806 8.01497C47.965 7.73685 48.0444 7.39913 48.0444 7.02168C48.0444 6.64423 47.965 6.31645 47.806 6.03833C47.6471 5.76021 47.4385 5.54169 47.1703 5.39269C46.9021 5.2437 46.624 5.16424 46.3161 5.16424C46.0082 5.16424 45.7201 5.2437 45.4619 5.39269C45.1937 5.54169 44.9851 5.76021 44.8262 6.03833C44.6673 6.31645 44.5878 6.64423 44.5878 7.02168C44.5878 7.39913 44.6673 7.73685 44.8262 8.01497C44.9851 8.29309 45.1937 8.51161 45.4619 8.66061C45.7201 8.8096 46.0082 8.88906 46.3161 8.88906C46.624 8.88906 46.9121 8.8096 47.1703 8.66061Z" fill="#502314"/>
<path d="M51.1957 11.8891C50.7487 11.5713 50.4408 11.2038 50.2918 10.7667L51.4241 10.2899C51.5433 10.578 51.732 10.8164 51.9903 10.9952C52.2485 11.174 52.5565 11.2633 52.9041 11.2633C53.4206 11.2633 53.8179 11.1144 54.106 10.8064C54.394 10.4985 54.543 10.0813 54.543 9.5251V9.00859H54.4735C54.2947 9.27678 54.0464 9.47543 53.7484 9.62443C53.4504 9.77342 53.0928 9.85288 52.6955 9.85288C52.2287 9.85288 51.7916 9.73369 51.3943 9.4953C50.9871 9.25691 50.6692 8.90926 50.4308 8.47221C50.1924 8.02524 50.0732 7.51866 50.0732 6.95249C50.0732 6.38631 50.1924 5.87974 50.4308 5.43276C50.6692 4.98578 50.9871 4.64806 51.3943 4.39974C51.8016 4.15142 52.2287 4.03223 52.6955 4.03223C53.0829 4.03223 53.4306 4.11169 53.7385 4.26068C54.0464 4.40967 54.2947 4.61827 54.4735 4.88645H54.543V4.20109H55.6952V9.4953C55.6952 10.1012 55.576 10.6177 55.3476 11.0448C55.1092 11.4719 54.7914 11.7997 54.3642 12.0182C53.9471 12.2368 53.4603 12.346 52.914 12.346C52.2287 12.346 51.6625 12.1871 51.2056 11.8693L51.1957 11.8891ZM53.7186 8.56161C53.9669 8.42255 54.1656 8.21396 54.3146 7.93584C54.4636 7.65772 54.5331 7.33987 54.5331 6.96242C54.5331 6.39625 54.3742 5.94927 54.0662 5.63142C53.7583 5.31357 53.371 5.15464 52.9041 5.15464C52.6061 5.15464 52.328 5.22417 52.0797 5.37316C51.8314 5.51222 51.6327 5.72081 51.4837 5.989C51.3347 6.25719 51.2652 6.58497 51.2652 6.96242C51.2652 7.33987 51.3347 7.66765 51.4837 7.93584C51.6327 8.20403 51.8314 8.41262 52.0797 8.55168C52.328 8.69074 52.6061 8.7702 52.9041 8.7702C53.2021 8.7702 53.4703 8.70067 53.7186 8.55168V8.56161Z" fill="#502314"/>
<path d="M57.1318 1.95605H58.3436V9.81295H57.1318V1.95605Z" fill="#502314"/>
<path d="M60.8841 9.60465C60.4471 9.34639 60.0994 8.99874 59.8511 8.55176C59.6028 8.10479 59.4736 7.61808 59.4736 7.09163C59.4736 6.52546 59.5928 6.02882 59.8411 5.59177C60.0895 5.15473 60.4172 4.80708 60.8344 4.56869C61.2516 4.32037 61.7085 4.20117 62.2052 4.20117C62.8707 4.20117 63.407 4.39983 63.8143 4.78721C64.2215 5.17459 64.5096 5.59177 64.6784 6.04868L64.8076 6.37647L60.9338 7.97566C61.2318 8.5617 61.6986 8.84975 62.3343 8.84975C62.9203 8.84975 63.3971 8.58156 63.7646 8.04519L64.748 8.70076C64.5295 9.02854 64.2215 9.32653 63.8143 9.59472C63.407 9.8629 62.9203 9.99203 62.3343 9.99203C61.788 9.99203 61.3013 9.8629 60.8642 9.60465H60.8841ZM63.3276 5.92949C63.258 5.7507 63.119 5.60171 62.9203 5.48251C62.7217 5.37325 62.5032 5.31365 62.2548 5.31365C62.0264 5.31365 61.7979 5.38318 61.5496 5.51231C61.3112 5.64144 61.1126 5.84009 60.9536 6.09835C60.7947 6.3566 60.7252 6.65459 60.7351 7.01217L63.3276 5.93942V5.92949Z" fill="#502314"/>
<path d="M68.3057 1.95605H71.0273C71.4842 1.95605 71.9113 2.05538 72.3086 2.26397C72.696 2.47256 73.0138 2.75068 73.2423 3.1182C73.4708 3.48572 73.5899 3.89296 73.5899 4.35981C73.5899 4.82665 73.4708 5.2339 73.2423 5.60142C73.0138 5.96893 72.696 6.25698 72.3086 6.45564C71.9212 6.66423 71.4941 6.76356 71.0273 6.76356H69.5373V9.81295H68.3057V1.95605ZM71.0471 5.60142C71.3153 5.60142 71.5537 5.54182 71.7524 5.42262C71.951 5.30343 72.1 5.1445 72.1993 4.95578C72.2987 4.76705 72.3483 4.5684 72.3483 4.35981C72.3483 4.15122 72.2987 3.95256 72.1993 3.76384C72.1 3.57511 71.951 3.41619 71.7524 3.30692C71.5537 3.19766 71.3253 3.12813 71.0471 3.12813H69.5373V5.60142H71.0471Z" fill="#502314"/>
<path d="M74.5776 1.95605H75.7894V9.81295H74.5776V1.95605Z" fill="#502314"/>
<path d="M77.9231 9.75372C77.6053 9.5948 77.3669 9.37627 77.1881 9.08822C77.0093 8.80017 76.9199 8.47238 76.9199 8.10487C76.9199 7.52876 77.1384 7.07185 77.5755 6.73413C78.0125 6.39641 78.5588 6.22756 79.2243 6.22756C79.5521 6.22756 79.8501 6.25735 80.1183 6.31695C80.3865 6.37655 80.5851 6.44608 80.7441 6.51561V6.22756C80.7441 5.87991 80.6149 5.60179 80.3567 5.38326C80.0984 5.16474 79.7707 5.05548 79.3733 5.05548C79.0853 5.05548 78.8171 5.11508 78.5688 5.2442C78.3205 5.37333 78.1119 5.54219 77.9629 5.76071L77.1186 5.11508C77.3669 4.76743 77.6947 4.49924 78.0821 4.31051C78.4694 4.12179 78.9164 4.02246 79.4031 4.02246C80.2176 4.02246 80.8434 4.22112 81.2804 4.61843C81.7175 5.01575 81.936 5.58192 81.936 6.30702V9.79345H80.754V9.12795H80.6944C80.5355 9.36634 80.307 9.57493 80.019 9.73386C79.7309 9.89278 79.3932 9.97225 79.0058 9.97225C78.5986 9.97225 78.241 9.89278 77.9331 9.73386L77.9231 9.75372ZM79.9991 8.7803C80.2375 8.64124 80.4163 8.45252 80.5454 8.22406C80.6745 7.98567 80.7441 7.73735 80.7441 7.46916C80.5752 7.36984 80.3766 7.30031 80.158 7.24071C79.9395 7.18111 79.7011 7.15131 79.4627 7.15131C79.0058 7.15131 78.678 7.24071 78.4694 7.4195C78.2609 7.59829 78.1516 7.82675 78.1516 8.1148C78.1516 8.37305 78.2509 8.58165 78.4496 8.7505C78.6482 8.91936 78.9065 8.99883 79.2144 8.99883C79.5025 8.99883 79.7707 8.9293 79.9991 8.79024V8.7803Z" fill="#502314"/>
<path d="M84.7506 9.50515L82.4263 4.21094H83.7771L85.3565 8.01522H85.4061L86.9457 4.21094H88.2767L84.8201 12.1771H83.5487L84.7704 9.49522L84.7506 9.50515Z" fill="#502314"/>
<path d="M91.2192 1.45933C91.6563 1.45933 92.0437 1.60833 92.3615 1.89638C92.6893 2.18443 92.9376 2.59168 93.1164 3.12805C93.2952 3.6545 93.3846 4.2902 93.3846 5.03516C93.3846 5.78013 93.2952 6.39597 93.1164 6.93234C92.9376 7.46872 92.6893 7.87596 92.3615 8.16402C92.0337 8.45207 91.6563 8.59113 91.2192 8.59113C90.7822 8.59113 90.4147 8.45207 90.0869 8.16402C89.769 7.87596 89.5108 7.46872 89.3419 6.93234C89.1731 6.39597 89.0737 5.7702 89.0737 5.03516C89.0737 4.30013 89.1631 3.66443 89.3419 3.12805C89.5207 2.60161 89.769 2.18443 90.0968 1.89638C90.4246 1.60833 90.7921 1.45933 91.2192 1.45933ZM91.2192 2.55195C91.0007 2.55195 90.802 2.65128 90.6332 2.84C90.4643 3.02873 90.3352 3.30685 90.2458 3.68429C90.1564 4.05181 90.1167 4.50872 90.1167 5.03516C90.1167 5.5616 90.1564 5.99865 90.2458 6.3761C90.3352 6.75355 90.4643 7.03167 90.6332 7.23033C90.802 7.42898 90.9908 7.51838 91.2192 7.51838C91.4576 7.51838 91.6563 7.41905 91.8152 7.23033C91.9841 7.03167 92.1033 6.75355 92.1926 6.3761C92.282 5.99865 92.3218 5.55167 92.3218 5.03516C92.3218 4.51865 92.282 4.05181 92.1926 3.68429C92.1033 3.31678 91.9741 3.03866 91.8152 2.84C91.6463 2.65128 91.4477 2.55195 91.2192 2.55195ZM93.0071 4.48886H94.7951V5.43248H93.0071V4.48886ZM94.4275 0.883227H95.5003V10.24H94.4275V0.883227ZM96.434 0.68457H97.5365V10.7168H96.434V0.68457Z" fill="#502314"/>
<path d="M101.435 1.509H102.369V3.15785C102.369 3.75382 102.309 4.32993 102.18 4.88617C102.051 5.44241 101.872 5.96885 101.634 6.45556C101.396 6.94227 101.108 7.36939 100.77 7.74684C100.432 8.12428 100.045 8.42227 99.6077 8.64079L98.8926 7.72697C99.2899 7.53824 99.6375 7.27999 99.9554 6.96214C100.263 6.64429 100.531 6.27677 100.76 5.85959C100.988 5.44241 101.147 5.0153 101.267 4.55839C101.376 4.10148 101.435 3.63463 101.435 3.15785V1.509ZM101.674 1.509H102.598V3.15785C102.598 3.61476 102.657 4.07168 102.766 4.52859C102.876 4.97557 103.045 5.40268 103.263 5.79006C103.482 6.17744 103.75 6.53503 104.058 6.84295C104.366 7.15086 104.713 7.38925 105.101 7.56804L104.405 8.4918C103.978 8.27328 103.591 7.98522 103.253 7.61771C102.915 7.25019 102.627 6.84294 102.399 6.3761C102.16 5.90926 101.982 5.40268 101.863 4.85637C101.733 4.31007 101.674 3.75383 101.674 3.16779V1.51893V1.509ZM103.998 3.97235H106.73V4.90604H103.998V3.97235ZM106.144 0.68457H107.296V10.7366H106.144V0.68457Z" fill="#502314"/>
<path d="M27.8574 16.8158H31.3836V17.521H28.7216V21.4445H27.8574V16.8158ZM27.8574 21.1067H28.4733C28.9302 21.1067 29.3473 21.1067 29.7248 21.0869C30.1022 21.0769 30.4797 21.0471 30.8373 21.0074C31.1949 20.9677 31.5624 20.918 31.9299 20.8584L32.0193 21.5835C31.6418 21.6531 31.2644 21.7127 30.8969 21.7424C30.5294 21.7822 30.142 21.802 29.7546 21.8219C29.3672 21.8418 28.9302 21.8418 28.4733 21.8418H27.8574V21.1067ZM32.5557 16.1006H33.4298V23.7092H32.5557V16.1006ZM33.2311 19.0109H34.6018V19.736H33.2311V19.0109Z" fill="#502314"/>
<path d="M35.4414 19.8853H42.3149V20.5806H35.4414V19.8853ZM38.8682 16.2598C39.4046 16.2598 39.8715 16.3194 40.2787 16.4485C40.686 16.5776 40.9939 16.7564 41.2223 16.9849C41.4508 17.2133 41.56 17.4914 41.56 17.8093C41.56 18.1271 41.4508 18.3953 41.2223 18.6337C40.9939 18.8622 40.686 19.041 40.2787 19.1701C39.8715 19.2893 39.4046 19.3588 38.8682 19.3588C38.3319 19.3588 37.8551 19.2992 37.4478 19.1701C37.0406 19.041 36.7227 18.8721 36.5042 18.6337C36.2857 18.4053 36.1764 18.1271 36.1764 17.8093C36.1764 17.4914 36.2857 17.2233 36.5042 16.9849C36.7227 16.7564 37.0406 16.5776 37.4478 16.4485C37.8551 16.3194 38.3219 16.2598 38.8682 16.2598ZM36.2758 21.2957H37.1598V23.0141H36.2758V21.2957ZM36.2758 22.8353H41.5501V23.5406H36.2758V22.8353ZM38.8682 16.965C38.5107 16.965 38.2027 16.9948 37.9346 17.0643C37.6664 17.1339 37.4677 17.2332 37.3187 17.3524C37.1797 17.4815 37.1002 17.6305 37.1002 17.8093C37.1002 17.9881 37.1697 18.1371 37.3187 18.2662C37.4578 18.3953 37.6664 18.4947 37.9346 18.5543C38.2027 18.6139 38.5107 18.6536 38.8682 18.6536C39.2258 18.6536 39.5337 18.6238 39.8019 18.5543C40.0701 18.4847 40.2688 18.3953 40.4078 18.2662C40.5568 18.1371 40.6264 17.9881 40.6264 17.8093C40.6264 17.6305 40.5568 17.4815 40.4078 17.3524C40.2588 17.2233 40.0602 17.1239 39.8019 17.0643C39.5437 16.9948 39.2358 16.965 38.8682 16.965ZM38.4908 20.3322H39.3848V22.0109H38.4908V20.3322Z" fill="#502314"/>
<path d="M42.9287 22.0803H49.8022V22.7954H42.9287V22.0803ZM43.7432 16.6271H48.9878V19.0309H44.6074V20.4314H43.7531V18.3356H48.1236V17.3224H43.7432V16.6172V16.6271ZM43.7631 20.0937H49.1665V20.789H43.7631V20.0937ZM45.9185 20.5407H46.7926V22.3782H45.9185V20.5407Z" fill="#502314"/>
<path d="M50.7812 22.0002H57.6548V22.7154H50.7812V22.0002ZM51.6255 16.7656H56.8204V17.4709H52.4897V19.9739H51.6255V16.7656ZM51.6255 19.676H56.89V20.3812H51.6255V19.676Z" fill="#502314"/>
</svg>
